<?xml version="1.0" encoding="UTF-8" standalone="no"?>
<!-- Created with Inkscape (http://www.inkscape.org/) -->

<svg
   xmlns:dc="http://purl.org/dc/elements/1.1/"
   xmlns:cc="http://creativecommons.org/ns#"
   xmlns:rdf="http://www.w3.org/1999/02/22-rdf-syntax-ns#"
   xmlns:svg="http://www.w3.org/2000/svg"
   xmlns="http://www.w3.org/2000/svg"
   xmlns:xlink="http://www.w3.org/1999/xlink"
   xmlns:sodipodi="http://sodipodi.sourceforge.net/DTD/sodipodi-0.dtd"
   xmlns:inkscape="http://www.inkscape.org/namespaces/inkscape"
   width="1052.3622"
   height="744.09448"
   id="svg7694"
   version="1.1"
   inkscape:version="0.48.3.1 r9886"
   sodipodi:docname="icones.svg">
  <defs
     id="defs7696" />
  <sodipodi:namedview
     id="base"
     pagecolor="#ffffff"
     bordercolor="#666666"
     borderopacity="1.0"
     inkscape:pageopacity="0.0"
     inkscape:pageshadow="2"
     inkscape:zoom="0.87085715"
     inkscape:cx="526.18109"
     inkscape:cy="236.0003"
     inkscape:document-units="px"
     inkscape:current-layer="layer1"
     showgrid="false"
     inkscape:window-width="1600"
     inkscape:window-height="849"
     inkscape:window-x="0"
     inkscape:window-y="25"
     inkscape:window-maximized="1"
     inkscape:snap-bbox="true"
     inkscape:bbox-paths="true"
     inkscape:bbox-nodes="true"
     inkscape:snap-bbox-edge-midpoints="true"
     inkscape:snap-bbox-midpoints="true"
     inkscape:object-nodes="true"
     inkscape:snap-global="false" />
  <metadata
     id="metadata7699">
    <rdf:RDF>
      <cc:Work
         rdf:about="">
        <dc:format>image/svg+xml</dc:format>
        <dc:type
           rdf:resource="http://purl.org/dc/dcmitype/StillImage" />
        <dc:title />
      </cc:Work>
    </rdf:RDF>
  </metadata>
  <g
     inkscape:label="Calque 1"
     inkscape:groupmode="layer"
     id="layer1"
     transform="translate(0,-308.2677)">
    <g
       transform="matrix(0.43383121,0,0,0.43774347,20.747184,538.87818)"
       style="color:#000000;fill:#9ade00;fill-opacity:0.52340423;fill-rule:nonzero;stroke:#009100;stroke-width:14.08169651;stroke-linecap:round;stroke-linejoin:round;stroke-miterlimit:4;stroke-opacity:1;stroke-dasharray:none;stroke-dashoffset:0;marker:none;visibility:visible;display:inline;overflow:visible;enable-background:accumulate"
       id="g4362"
       inkscape:transform-center-y="-7.4235987">
      <path
         style="color:#000000;fill:#9ade00;fill-opacity:0.52340423;fill-rule:nonzero;stroke:#009100;stroke-width:4.29645252;stroke-linecap:round;stroke-linejoin:round;stroke-miterlimit:4;stroke-opacity:1;stroke-dasharray:none;stroke-dashoffset:0;marker:none;visibility:visible;display:inline;overflow:visible;enable-background:accumulate"
         d="m 775.90625,541.8125 c 3.02984,7.61097 6.42367,21.13786 9.375,31.78125 1.93051,6.96201 3.25196,14.37256 5.4375,20.96875 8.79096,26.532 33.80021,45.65625 63.28125,45.65625 29.48104,0 54.52154,-19.12425 63.3125,-45.65625 2.18554,-6.59619 3.50699,-14.00674 5.4375,-20.96875 2.95133,-10.64339 6.34516,-24.17028 9.375,-31.78125 -14.47657,4.73194 -34.08052,4.22903 -50.3125,31.78125 C 873.74793,557.00306 865.71641,551.32304 854,541.8125 c -11.71641,9.51054 -19.71668,15.19056 -27.78125,31.78125 -16.23198,-27.55222 -35.83593,-27.04931 -50.3125,-31.78125 z"
         transform="matrix(3.277517,0,0,3.277517,-2543.0491,-1623.9279)"
         id="path3928-5"
         inkscape:connector-curvature="0" />
    </g>
    <path
       inkscape:connector-curvature="0"
       style="color:#000000;fill:#9ade00;fill-opacity:0.52340423;fill-rule:nonzero;stroke:#009100;stroke-width:6.1365633;stroke-linecap:round;stroke-linejoin:round;stroke-miterlimit:4;stroke-opacity:1;stroke-dashoffset:0;marker:none;visibility:visible;display:inline;overflow:visible;enable-background:accumulate"
       d="m 303.8428,358.76572 c -9.38529,0 -16.98109,7.5958 -16.98109,16.98109 0,9.3853 7.5958,16.9811 16.98109,16.9811 l 0,58.39057 25.9371,0 c 6.36263,-17.25596 22.93925,-29.56444 42.40459,-29.56444 19.46533,0 36.07405,12.30848 42.43669,29.56444 l 25.90499,0 0,-58.39057 c 9.3853,0 17.0132,-7.5958 17.0132,-16.9811 0,-9.38529 -7.6279,-16.98109 -17.0132,-16.98109 -9.38529,0 -16.98109,7.5958 -16.98109,16.98109 0,4.46964 1.73694,8.52241 4.55825,11.55614 l -21.73195,20.22323 -21.73195,-20.22323 c 2.82131,-3.03373 4.55825,-7.0865 4.55825,-11.55614 0,-9.38529 -7.6279,-16.98109 -17.01319,-16.98109 -9.3853,0 -16.9811,7.5958 -16.9811,16.98109 0,4.46964 1.73695,8.52241 4.55826,11.55614 l -21.73195,20.22323 -21.73195,-20.22323 c 2.82131,-3.03373 4.55825,-7.0865 4.55825,-11.55614 0,-9.38529 -7.6279,-16.98109 -17.0132,-16.98109 z"
       id="path6015" />
    <path
       inkscape:connector-curvature="0"
       style="color:#000000;fill:#9ade00;fill-opacity:0.52340423;fill-rule:nonzero;stroke:#009100;stroke-width:6.1365633;stroke-linecap:round;stroke-linejoin:round;stroke-miterlimit:4;stroke-opacity:1;stroke-dashoffset:0;marker:none;visibility:visible;display:inline;overflow:visible;enable-background:accumulate"
       d="m 590.87342,282.83995 c -110.71202,0 -88.25,124.09184 -88.25,216.46875 l 31.2813,0 c 4.1251,-5.42771 8.7638,-10.31026 13.9062,-14.5 -2.363,-5.66241 -3.75,-11.81673 -3.75,-18.28125 0,-21.51196 14.6123,-39.9502 34.3438,-45.84375 l 0,-29.59375 -49.125,0 0,-24.96875 123.2187,0 0,24.96875 -49.125,0 0,29.0625 c 20.7245,5.21997 36.3125,24.15103 36.3125,46.375 0,6.92788 -1.585,13.51486 -4.2812,19.5 4.5672,3.91171 8.7379,8.37094 12.4687,13.28125 l 31.25,0 c 0,-95.37696 22.462,-216.46875 -88.25,-216.46875 z"
       id="rect6017" />
    <path
       style="color:#000000;fill:#9ade00;fill-opacity:0.52340423;stroke:#009100;stroke-width:6.13639307;stroke-miterlimit:4;stroke-opacity:1;stroke-dasharray:none;marker:none;visibility:visible;display:inline;overflow:visible;enable-background:accumulate"
       d="m 591.87062,437.1194 c -16.2364,0 -29.3972,13.1608 -29.3972,29.39716 0,9.7056 4.7143,18.30965 11.966,23.66347 -25.8668,10.10355 -44.8532,43.47121 -44.8532,83.07143 l 122.5744,0 c 0,-38.94823 -18.3536,-71.8677 -43.5684,-82.55368 7.6657,-5.30578 12.6755,-14.15269 12.6755,-24.18122 0,-16.23636 -13.1608,-29.39716 -29.3971,-29.39716 z"
       id="path6052"
       inkscape:connector-curvature="0" />
    <path
       id="path6064"
       d="m 115.56959,437.2971 c -48.322103,0 -38.518103,54.54725 -38.518103,95.15352 l 33.076003,0 0,-47.56989 -21.441502,0 0,-10.97556 53.780902,0 0,10.97556 -21.4414,0 0,47.56989 33.0623,0 c 0,-41.925 9.8039,-95.15352 -38.5182,-95.15352 z"
       style="color:#000000;fill:#9ade00;fill-opacity:0.52340423;fill-rule:nonzero;stroke:#009100;stroke-width:6.1365633;stroke-linecap:round;stroke-linejoin:round;stroke-miterlimit:4;stroke-opacity:1;stroke-dashoffset:0;marker:none;visibility:visible;display:inline;overflow:visible;enable-background:accumulate"
       inkscape:connector-curvature="0" />
    <path
       inkscape:connector-curvature="0"
       id="path6067"
       d="m 591.87062,788.46184 c -16.2364,0 -29.3972,13.1608 -29.3972,29.39716 0,9.7056 4.7143,18.30965 11.966,23.66347 -25.8668,10.10355 -44.8532,43.47121 -44.8532,83.07143 l 122.5744,0 c 0,-38.94823 -18.3536,-71.8677 -43.5684,-82.55368 7.6657,-5.30578 12.6755,-14.15269 12.6755,-24.18122 0,-16.23636 -13.1608,-29.39716 -29.3971,-29.39716 z"
       style="color:#000000;fill:#9ade00;fill-opacity:0.52340423;stroke:#009100;stroke-width:6.13639307;stroke-miterlimit:4;stroke-opacity:1;stroke-dasharray:none;marker:none;visibility:visible;display:inline;overflow:visible;enable-background:accumulate" />
    <g
       transform="translate(-501.43908,127.9962)"
       id="g6119">
      <path
         sodipodi:nodetypes="cccc"
         inkscape:connector-curvature="0"
         id="rect6069"
         d="m 1231.8628,553.33197 c 7.5933,78.14378 13.6088,149.97135 32.2337,213.13665 l -64.4674,0 c 17.313,-62.28763 25.2835,-137.03201 32.2337,-213.13665 z"
         style="color:#000000;fill:#9ade00;fill-opacity:0.52340423;fill-rule:nonzero;stroke:#009100;stroke-width:6.1365633;stroke-linecap:round;stroke-linejoin:round;stroke-miterlimit:4;stroke-opacity:1;stroke-dashoffset:0;marker:none;visibility:visible;display:inline;overflow:visible;enable-background:accumulate" />
      <path
         inkscape:connector-curvature="0"
         id="path6072"
         d="m 1315.4375,619.1875 c -48.3221,0 -38.5313,54.54998 -38.5313,95.15625 l 20.125,0 c -9.0578,4.00588 -17.2052,10.90538 -23.9062,19.90625 2.1634,9.35697 4.5237,18.50901 7.1562,27.4375 a 16.892646,16.892646 0 0 1 -16.1874,21.6875 l -9.2188,0 c -0.4719,4.31186 -0.7188,8.7211 -0.7188,13.21875 l 69.1876,0 a 12.689065,12.689065 0 0 1 -0.1563,-1.96875 l 0,-56.65625 a 12.689065,12.689065 0 0 1 12.6875,-12.6875 l 14,0 c -4.8844,-4.67534 -10.2741,-8.39198 -16.0312,-10.9375 l 20.125,0 c 0,-41.925 9.7908,-95.15625 -38.5313,-95.15625 z m -26.875,36.59375 53.7813,0 0,10.96875 -21.4376,0 0,35.6875 -10.9062,0 0,-35.6875 -21.4375,0 0,-10.96875 z"
         style="color:#000000;fill:#9ade00;fill-opacity:0.52340423;stroke:#009100;stroke-width:6.13639307;stroke-miterlimit:4;stroke-opacity:1;stroke-dasharray:none;marker:none;visibility:visible;display:inline;overflow:visible;enable-background:accumulate" />
      <path
         sodipodi:nodetypes="cccscccc"
         inkscape:connector-curvature="0"
         id="rect6085"
         d="m 1335.8872,737.96895 0,56.64604 0.3445,0 c 0.014,22.15413 17.9415,40.13092 40.0598,40.13092 22.1182,0 40.0454,-17.97679 40.0598,-40.13092 l 0.3444,0 0,-56.64604 z"
         style="color:#000000;fill:#9ade00;fill-opacity:0.52340423;fill-rule:nonzero;stroke:#009100;stroke-width:6.1365633;stroke-linecap:round;stroke-linejoin:round;stroke-miterlimit:4;stroke-opacity:1;stroke-dasharray:none;stroke-dashoffset:0;marker:none;visibility:visible;display:inline;overflow:visible;enable-background:accumulate" />
    </g>
    <g
       transform="translate(-501.43908,127.9962)"
       id="g6415">
      <path
         inkscape:connector-curvature="0"
         id="path6013"
         d="m 1369.0625,309.125 c -16.2363,0 -29.375,13.16989 -29.375,29.40625 0,9.7056 4.6859,18.30243 11.9375,23.65625 -9.8155,3.83394 -18.6087,11.02193 -25.7812,20.625 l 11.0312,30.8125 a 13.52828,13.52828 0 0 1 -8.1875,17.28125 l -16.2813,5.84375 a 13.52828,13.52828 0 0 1 -5.375,0.75 c -0.1619,2.55449 -0.25,5.13631 -0.25,7.75 l 122.5938,0 c 0,-38.94823 -18.379,-71.87652 -43.5938,-82.5625 7.6658,-5.30578 12.6876,-14.12772 12.6876,-24.15625 0,-16.23636 -13.1699,-29.40625 -29.4063,-29.40625 z"
         style="color:#000000;fill:#9ade00;fill-opacity:0.52340423;stroke:#009100;stroke-width:6.13639307;stroke-miterlimit:4;stroke-opacity:1;stroke-dasharray:none;marker:none;visibility:visible;display:inline;overflow:visible;enable-background:accumulate" />
      <path
         inkscape:connector-curvature="0"
         id="rect6394"
         d="m 1368.0625,156.90625 -51.2813,158.6875 12.9688,0 c 7.9532,-13.50933 22.6444,-22.6875 39.3125,-22.6875 16.6719,0 31.3825,9.17321 39.3437,22.6875 l 10.9376,0 -51.2813,-158.6875 z"
         style="color:#000000;fill:#9ade00;fill-opacity:0.52340423;fill-rule:nonzero;stroke:#009100;stroke-width:6.1365633;stroke-linecap:round;stroke-linejoin:round;stroke-miterlimit:4;stroke-opacity:1;stroke-dashoffset:0;marker:none;visibility:visible;display:inline;overflow:visible;enable-background:accumulate" />
      <path
         sodipodi:nodetypes="cscscccccscccc"
         inkscape:connector-curvature="0"
         id="path6402"
         d="m 1256.4539,256.83047 c -2.6842,1.03724 -2.6752,22.76388 -4.2377,25.1787 -1.5625,2.41483 -21.3959,11.3302 -21.2399,14.2003 0.1559,2.87012 20.8193,9.55619 22.6341,11.7853 1.8148,2.22912 4.1774,23.82346 6.9579,24.5601 1.6007,0.42413 6.5052,-5.19824 10.8971,-10.26917 l 36.3826,101.73501 16.2721,-5.81924 -36.8562,-103.05913 c 7.095,0.83657 16.0762,2.03735 17.0714,0.49938 1.5624,-2.41483 -11.2325,-19.97281 -11.3884,-22.84294 -0.1559,-2.87009 10.646,-21.70494 8.8313,-23.93408 -1.8148,-2.22912 -22.4915,4.49755 -25.2721,3.76091 -2.7804,-0.73668 -17.3681,-16.8323 -20.0522,-15.79514 z"
         style="color:#000000;fill:#9ade00;fill-opacity:0.52340423;fill-rule:nonzero;stroke:#009100;stroke-width:6.13656282;stroke-linecap:round;stroke-linejoin:round;stroke-miterlimit:4;stroke-opacity:1;stroke-dasharray:none;stroke-dashoffset:0;marker:none;visibility:visible;display:inline;overflow:visible;enable-background:accumulate" />
    </g>
    <path
       style="color:#000000;fill:#9ade00;fill-opacity:0.52340423;fill-rule:nonzero;stroke:#009100;stroke-width:6.1365633;stroke-linecap:round;stroke-linejoin:round;stroke-miterlimit:4;stroke-opacity:1;stroke-dasharray:none;stroke-dashoffset:0;marker:none;visibility:visible;display:inline;overflow:visible;enable-background:accumulate"
       d="m 351.23171,571.72619 0,48.96875 c -5.23956,0.78844 -10.29944,2.15454 -15.09375,4.03125 l -18.9375,-32.78125 -18.28125,10.5625 18.9375,32.8125 c -4.08767,3.27092 -7.79408,6.97274 -11.0625,11.0625 l -42.40625,-24.5 -10.5625,18.28125 42.40625,24.46875 c -1.88054,4.79978 -3.27295,9.84747 -4.0625,15.09375 l -37.84375,0 0,21.125 37.84375,0 c 0.78955,5.24628 2.18196,10.29397 4.0625,15.09375 l -42.40625,24.46875 10.5625,18.28125 42.40625,-24.5 c 3.26721,4.08728 6.97692,7.79326 11.0625,11.0625 l -18.9375,32.81248 18.28125,10.5625 18.90625,-32.81248 c 4.80558,1.88435 9.87164,3.27198 15.125,4.0625 l 0,48.96878 21.09375,0 0,-48.96878 c 5.24994,-0.78776 10.29059,-2.15107 15.09375,-4.03125 l 18.9375,32.78123 18.28125,-10.5625 -18.9375,-32.81248 c 4.0758,-3.26142 7.80098,-6.95553 11.0625,-11.03125 l 42.40625,24.46875 10.5625,-18.28125 -42.40625,-24.46875 c 1.88054,-4.79978 3.27295,-9.84747 4.0625,-15.09375 l 37.84375,0 0,-21.125 -37.84375,0 c -0.78955,-5.24628 -2.18196,-10.29397 -4.0625,-15.09375 l 42.40625,-24.46875 -10.5625,-18.28125 -42.40625,24.46875 c -3.26271,-4.07814 -6.98465,-7.76819 -11.0625,-11.03125 l 18.9375,-32.8125 -18.28125,-10.5625 -18.90625,32.8125 c -4.81443,-1.88782 -9.86127,-3.27267 -15.125,-4.0625 l 0,-48.96875 -21.09375,0 z"
       id="path7986"
       inkscape:connector-curvature="0" />
    <g
       id="g8574"
       transform="matrix(1.4052236,0,0,1.4052236,-31.39719,-597.39069)">
      <path
         sodipodi:nodetypes="cscccc"
         inkscape:connector-curvature="0"
         id="rect8005"
         d="m 175.47345,996.513 c -24.56771,10.8277 -64.51789,-15.92207 -101.103969,13.0737 -23.506104,18.6294 -43.190506,57.5198 -10.839878,86.098 l -16.130873,17.1474 5.877825,5.8778 z"
         style="color:#000000;fill:#9ade00;fill-opacity:0.52340423;fill-rule:nonzero;stroke:#009100;stroke-width:4.36696577;stroke-linecap:round;stroke-linejoin:round;stroke-miterlimit:4;stroke-opacity:1;stroke-dashoffset:0;marker:none;visibility:visible;display:inline;overflow:visible;enable-background:accumulate" />
      <use
         height="744.09448"
         width="1052.3622"
         transform="matrix(0,-1,-1,0,1171.9864,1171.9864)"
         id="use8013"
         xlink:href="#rect8005"
         y="0"
         x="0" />
      <path
         sodipodi:nodetypes="cc"
         inkscape:connector-curvature="0"
         id="path8015"
         d="m 85.674349,1085.708 c -9.986302,-14.0479 -12.897196,-30.4542 -11.000783,-48.4629"
         style="color:#000000;fill:none;stroke:#009100;stroke-width:4.36696577;stroke-linecap:round;stroke-linejoin:round;stroke-miterlimit:4;stroke-opacity:1;stroke-dasharray:none;stroke-dashoffset:0;marker:none;visibility:visible;display:inline;overflow:visible;enable-background:accumulate" />
      <path
         style="color:#000000;fill:none;stroke:#009100;stroke-width:4.36696577;stroke-linecap:round;stroke-linejoin:round;stroke-miterlimit:4;stroke-opacity:1;stroke-dasharray:none;stroke-dashoffset:0;marker:none;visibility:visible;display:inline;overflow:visible;enable-background:accumulate"
         d="m 116.54458,1055.4419 c -9.98626,-14.0479 -10.22132,-20.6427 -8.32495,-38.6514"
         id="path8570"
         inkscape:connector-curvature="0"
         sodipodi:nodetypes="cc" />
      <path
         sodipodi:nodetypes="cc"
         inkscape:connector-curvature="0"
         id="path8572"
         d="m 103.46256,1072.0917 c 14.04788,9.9863 20.64265,10.2213 38.65135,8.325"
         style="color:#000000;fill:none;stroke:#009100;stroke-width:4.36696577;stroke-linecap:round;stroke-linejoin:round;stroke-miterlimit:4;stroke-opacity:1;stroke-dasharray:none;stroke-dashoffset:0;marker:none;visibility:visible;display:inline;overflow:visible;enable-background:accumulate" />
    </g>
    <path
       style="color:#000000;fill:#9ade00;fill-opacity:0.52340423;fill-rule:nonzero;stroke:#009100;stroke-width:6.13656282;stroke-linecap:round;stroke-linejoin:round;stroke-miterlimit:4;stroke-opacity:1;stroke-dasharray:none;stroke-dashoffset:0;marker:none;visibility:visible;display:inline;overflow:visible;enable-background:accumulate"
       d="m 341.58791,811.88712 -18.83834,32.6231 -8.08729,-14.019 -10.63106,6.1453 8.18328,14.163 -38.03665,0 0.024,15.7955 47.10786,-0.024 7.17537,12.4347 -20.5422,0 0,9.6741 26.10971,-0.024 8.06329,13.971 -8.59125,14.7392 -16.15058,0 -12.98285,-22.5169 -8.37526,4.825 10.1991,17.6919 -14.37474,0 -23.46994,-40.6648 -13.67879,7.8737 18.93433,32.7911 -16.17457,0 0,12.2666 16.15058,0 -18.91034,32.7911 13.67879,7.8737 23.44595,-40.6648 14.39873,0 -10.1991,17.6918 8.37526,4.8011 12.95886,-22.4929 16.24656,0 8.47126,14.8352 -7.9913,13.8511 -26.1337,0 0,9.674 20.5422,0 -7.15138,12.4108 -47.13185,0 -0.024,15.7953 38.03665,0 -8.18328,14.16308 10.63106,6.1454 8.08729,-13.9951 18.83834,32.599 13.6548,-7.9217 -23.37394,-40.47268 7.15137,-12.4347 10.12711,17.5238 8.37526,-4.8491 -12.91087,-22.3488 8.11129,-14.091 17.0865,0.096 7.8953,13.6829 -13.05484,22.6609 8.35126,4.8491 10.29509,-17.8359 7.17537,12.4346 -23.54192,40.78488 13.65479,7.9217 19.00633,-32.9111 8.25527,14.3071 10.63106,-6.1453 -8.18327,-14.16308 37.70068,0 -0.024,-15.7954 -46.79588,0 -7.15137,-12.4107 20.20622,0 0,-9.674 -25.79773,0 -8.0393,-13.9231 8.59126,-14.7632 15.8146,0 12.98286,22.4928 8.37526,-4.801 -10.1991,-17.6918 14.37473,0 23.46994,40.6648 13.6788,-7.8737 -18.93434,-32.7911 16.51054,0 0,-12.2667 -16.48654,0 18.91034,-32.791 -13.6788,-7.8737 -23.44594,40.6647 -14.39873,0 10.1991,-17.6918 -8.37526,-4.825 -12.95886,22.5168 -15.9106,0 -8.47125,-14.8112 7.99129,-13.875 25.79773,0 0,-9.6741 -20.20622,0 7.15137,-12.4106 46.79588,0 0.024,-15.7954 -37.70068,0 8.18327,-14.1631 -10.63106,-6.1453 -8.25527,14.2831 -19.00633,-32.8872 -13.67879,7.9218 23.56592,40.7848 -7.17537,12.4347 -10.29509,-17.8359 -8.35126,4.849 13.07884,22.6369 -7.9673,13.803 -17.0625,-0.096 -8.08729,-13.995 12.91087,-22.3488 -8.37526,-4.8491 -10.10311,17.5238 -7.17537,-12.4107 23.37394,-40.4967 -13.6548,-7.9217 z"
       id="path8581"
       inkscape:connector-curvature="0" />
  </g>
</svg>
