<?xml version="1.0" encoding="UTF-8" standalone="no"?>
<!-- Created with Inkscape (http://www.inkscape.org/) -->

<svg
   xmlns:dc="http://purl.org/dc/elements/1.1/"
   xmlns:cc="http://creativecommons.org/ns#"
   xmlns:rdf="http://www.w3.org/1999/02/22-rdf-syntax-ns#"
   xmlns:svg="http://www.w3.org/2000/svg"
   xmlns="http://www.w3.org/2000/svg"
   xmlns:sodipodi="http://sodipodi.sourceforge.net/DTD/sodipodi-0.dtd"
   xmlns:inkscape="http://www.inkscape.org/namespaces/inkscape"
   width="210mm"
   height="297mm"
   id="svg2"
   version="1.1"
   inkscape:version="0.48.3.1 r9886"
   sodipodi:docname="hexa.svg"
   enable-background="new">
  <sodipodi:namedview
     id="base"
     pagecolor="#ffffff"
     bordercolor="#666666"
     borderopacity="1.0"
     inkscape:pageopacity="0.0"
     inkscape:pageshadow="2"
     inkscape:zoom="0.63286197"
     inkscape:cx="501.61736"
     inkscape:cy="526.18109"
     inkscape:document-units="px"
     inkscape:current-layer="g18291"
     showgrid="false"
     inkscape:window-width="1600"
     inkscape:window-height="849"
     inkscape:window-x="0"
     inkscape:window-y="25"
     inkscape:window-maximized="1"
     inkscape:snap-center="true"
     inkscape:snap-nodes="true"
     inkscape:snap-page="true"
     borderlayer="true" />
  <defs
     id="defs4">
    <filter
       inkscape:collect="always"
       id="filter20378">
      <feBlend
         inkscape:collect="always"
         mode="multiply"
         in2="BackgroundImage"
         id="feBlend20380" />
    </filter>
  </defs>
  <metadata
     id="metadata7">
    <rdf:RDF>
      <cc:Work
         rdf:about="">
        <dc:format>image/svg+xml</dc:format>
        <dc:type
           rdf:resource="http://purl.org/dc/dcmitype/StillImage" />
        <dc:title></dc:title>
      </cc:Work>
    </rdf:RDF>
  </metadata>
  <g
     id="g18291"
     inkscape:groupmode="layer"
     inkscape:label="Hex Fill"
     style="display:inline">
    <polygon
       id="hexfill_2_1"
       style="fill:#a7da5f;fill-opacity:1;stroke:none"
       points="198.4252,85.920631 248.0315,171.84126 198.4252,257.76189 99.212598,257.76189 49.606299,171.84126 99.212598,85.920631 "
       transform="matrix(1.0692,0,0,1.0692,-28.156535,24.095496)" />
    <polygon
       id="hexfill_2_2"
       style="fill:#6598d5;fill-opacity:1;stroke:none"
       points="198.4252,257.76189 248.0315,343.68252 198.4252,429.60315 99.212598,429.60315 49.606299,343.68252 99.212598,257.76189 "
       transform="matrix(1.0692,0,0,1.0692,-28.156535,25.951383)" />
    <polygon
       id="hexfill_2_3"
       style="color:#000000;fill:#a7da5f;fill-opacity:1;fill-rule:nonzero;stroke:none;marker:none;visibility:visible;display:inline;overflow:visible;enable-background:accumulate"
       points="198.4252,429.60315 248.0315,515.52378 198.4252,601.44441 99.212598,601.44441 49.606299,515.52378 99.212598,429.60315 "
       transform="matrix(1.0692,0,0,1.0692,-28.156535,27.807272)" />
    <polygon
       id="hexfill_2_4"
       style="color:#000000;fill:#698b3f;fill-opacity:1;fill-rule:nonzero;stroke:none;stroke-width:1;marker:none;visibility:visible;display:inline;overflow:visible;enable-background:accumulate"
       points="198.4252,601.44441 248.0315,687.36505 198.4252,773.28568 99.212598,773.28568 49.606299,687.36505 99.212598,601.44441 "
       transform="matrix(1.0692,0,0,1.0692,-28.156535,29.66315)" />
    <polygon
       id="hexfill_2_5"
       style="color:#000000;fill:#698b3f;fill-opacity:1;fill-rule:nonzero;stroke:none;stroke-width:1;marker:none;visibility:visible;display:inline;overflow:visible;enable-background:accumulate"
       points="198.4252,773.28568 248.0315,859.20631 198.4252,945.12694 99.212598,945.12694 49.606299,859.20631 99.212598,773.28568 "
       transform="matrix(1.0692,0,0,1.0692,-28.156535,31.519037)" />
    <polygon
       id="hexfill_3_1"
       style="color:#000000;fill:#698b3f;fill-opacity:1;fill-rule:nonzero;stroke:none;marker:none;visibility:visible;display:inline;overflow:visible;enable-background:accumulate"
       points="347.24409,0 396.85039,85.920631 347.24409,171.84126 248.0315,171.84126 198.4252,85.920631 248.0315,0 "
       transform="matrix(1.0692,0,0,1.0692,-26.549292,23.167554)" />
    <polygon
       id="hexfill_3_2"
       style="color:#000000;fill:#a7da5f;fill-opacity:1;fill-rule:nonzero;stroke:none;marker:none;visibility:visible;display:inline;overflow:visible;enable-background:accumulate"
       points="347.24409,171.84126 396.85039,257.76189 347.24409,343.68252 248.0315,343.68252 198.4252,257.76189 248.0315,171.84126 "
       transform="matrix(1.0692,0,0,1.0692,-26.549292,25.02344)" />
    <polygon
       id="hexfill_3_3"
       style="color:#000000;fill:#a7da5f;fill-opacity:1;fill-rule:nonzero;stroke:none;marker:none;visibility:visible;display:inline;overflow:visible;enable-background:accumulate"
       points="347.24409,343.68252 396.85039,429.60315 347.24409,515.52378 248.0315,515.52378 198.4252,429.60315 248.0315,343.68252 "
       transform="matrix(1.0692,0,0,1.0692,-26.549292,26.879321)" />
    <polygon
       id="hexfill_3_4"
       style="color:#000000;fill:#698b3f;fill-opacity:1;fill-rule:nonzero;stroke:none;stroke-width:1;marker:none;visibility:visible;display:inline;overflow:visible;enable-background:accumulate"
       points="347.24409,515.52378 396.85039,601.44441 347.24409,687.36505 248.0315,687.36505 198.4252,601.44441 248.0315,515.52378 "
       transform="matrix(1.0692,0,0,1.0692,-26.549292,28.735211)" />
    <polygon
       id="hexfill_3_5"
       style="color:#000000;fill:#f6ed69;fill-opacity:1;fill-rule:nonzero;stroke:none;marker:none;visibility:visible;display:inline;overflow:visible;enable-background:accumulate"
       points="347.24409,687.36505 396.85039,773.28568 347.24409,859.20631 248.0315,859.20631 198.4252,773.28568 248.0315,687.36505 "
       transform="matrix(1.0692,0,0,1.0692,-26.549292,30.591102)" />
    <polygon
       id="hexfill_4_1"
       style="fill:#f6ed69;fill-opacity:1;stroke:none"
       points="496.06299,85.920631 545.66929,171.84126 496.06299,257.76189 396.85039,257.76189 347.24409,171.84126 396.85039,85.920631 "
       transform="matrix(1.0692,0,0,1.0692,-24.942047,24.095496)" />
    <polygon
       id="hexfill_4_2"
       style="color:#000000;fill:#a7da5f;fill-opacity:1;fill-rule:nonzero;stroke:none;marker:none;visibility:visible;display:inline;overflow:visible;enable-background:accumulate"
       points="496.06299,257.76189 545.66929,343.68252 496.06299,429.60315 396.85039,429.60315 347.24409,343.68252 396.85039,257.76189 "
       transform="matrix(1.0692,0,0,1.0692,-24.942047,25.951383)" />
    <polygon
       id="hexfill_4_3"
       style="color:#000000;fill:#698b3f;fill-opacity:1;fill-rule:nonzero;stroke:none;stroke-width:1;marker:none;visibility:visible;display:inline;overflow:visible;enable-background:accumulate"
       points="496.06299,429.60315 545.66929,515.52378 496.06299,601.44441 396.85039,601.44441 347.24409,515.52378 396.85039,429.60315 "
       transform="matrix(1.0692,0,0,1.0692,-24.942047,27.807272)" />
    <polygon
       id="hexfill_4_4"
       style="color:#000000;fill:#f6ed69;fill-opacity:1;fill-rule:nonzero;stroke:none;marker:none;visibility:visible;display:inline;overflow:visible;enable-background:accumulate"
       points="496.06299,601.44441 545.66929,687.36505 496.06299,773.28568 396.85039,773.28568 347.24409,687.36505 396.85039,601.44441 "
       transform="matrix(1.0692,0,0,1.0692,-24.942047,29.66315)" />
    <polygon
       id="hexfill_4_5"
       style="color:#000000;fill:#6598d5;fill-opacity:1;fill-rule:nonzero;stroke:none;marker:none;visibility:visible;display:inline;overflow:visible;enable-background:accumulate"
       points="496.06299,773.28568 545.66929,859.20631 496.06299,945.12694 396.85039,945.12694 347.24409,859.20631 396.85039,773.28568 "
       transform="matrix(1.0692,0,0,1.0692,-24.942047,31.519037)" />
    <polygon
       id="hexfill_5_1"
       style="color:#000000;fill:#af8052;fill-opacity:1;fill-rule:nonzero;stroke:none;marker:none;visibility:visible;display:inline;overflow:visible;enable-background:accumulate"
       points="644.88189,0 694.48819,85.920631 644.88189,171.84126 545.66929,171.84126 496.06299,85.920631 545.66929,0 "
       transform="matrix(1.0692,0,0,1.0692,-23.334803,23.167554)" />
    <polygon
       id="hexfill_5_2"
       style="color:#000000;fill:#a7da5f;fill-opacity:1;fill-rule:nonzero;stroke:none;marker:none;visibility:visible;display:inline;overflow:visible;enable-background:accumulate"
       points="644.88189,171.84126 694.48819,257.76189 644.88189,343.68252 545.66929,343.68252 496.06299,257.76189 545.66929,171.84126 "
       transform="matrix(1.0692,0,0,1.0692,-23.334803,25.02344)" />
    <polygon
       id="hexfill_5_3"
       style="color:#000000;fill:#698b3f;fill-opacity:1;fill-rule:nonzero;stroke:none;stroke-width:1;marker:none;visibility:visible;display:inline;overflow:visible;enable-background:accumulate"
       points="644.88189,343.68252 694.48819,429.60315 644.88189,515.52378 545.66929,515.52378 496.06299,429.60315 545.66929,343.68252 "
       transform="matrix(1.0692,0,0,1.0692,-23.334803,26.879321)" />
    <polygon
       id="hexfill_5_4"
       style="color:#000000;fill:#af8052;fill-opacity:1;fill-rule:nonzero;stroke:none;marker:none;visibility:visible;display:inline;overflow:visible;enable-background:accumulate"
       points="644.88189,515.52378 694.48819,601.44441 644.88189,687.36505 545.66929,687.36505 496.06299,601.44441 545.66929,515.52378 "
       transform="matrix(1.0692,0,0,1.0692,-23.334803,28.735211)" />
    <polygon
       id="hexfill_5_5"
       style="color:#000000;fill:#af8052;fill-opacity:1;fill-rule:nonzero;stroke:none;marker:none;visibility:visible;display:inline;overflow:visible;enable-background:accumulate"
       points="644.88189,687.36505 694.48819,773.28568 644.88189,859.20631 545.66929,859.20631 496.06299,773.28568 545.66929,687.36505 "
       transform="matrix(1.0692,0,0,1.0692,-23.334803,30.591102)" />
    <g
       style="display:inline;filter:url(#filter20378)"
       transform="translate(29.832732,-5.90392)"
       id="g20556">
      <path
         style="fill:none;stroke:#000000;stroke-width:1px;stroke-linecap:butt;stroke-linejoin:miter;stroke-opacity:1"
         d="m 74.2658,64.785059 53.7242,0"
         id="path20558"
         inkscape:connector-curvature="0" />
      <path
         inkscape:connector-curvature="0"
         id="path20560"
         d="m 101.1279,37.922959 0,53.7242"
         style="fill:none;stroke:#000000;stroke-width:1px;stroke-linecap:butt;stroke-linejoin:miter;stroke-opacity:1" />
    </g>
    <g
       style="display:inline;filter:url(#filter20378)"
       transform="translate(512.00596,941.55012)"
       id="g20562">
      <path
         inkscape:connector-curvature="0"
         id="path20564"
         d="m 74.2658,64.785059 53.7242,0"
         style="fill:none;stroke:#000000;stroke-width:1px;stroke-linecap:butt;stroke-linejoin:miter;stroke-opacity:1" />
      <path
         style="fill:none;stroke:#000000;stroke-width:1px;stroke-linecap:butt;stroke-linejoin:miter;stroke-opacity:1"
         d="m 101.1279,37.922959 0,53.7242"
         id="path20566"
         inkscape:connector-curvature="0" />
    </g>
    <g
       style="display:inline;filter:url(#filter20378)"
       transform="translate(190.55714,941.55012)"
       id="g20568">
      <path
         inkscape:connector-curvature="0"
         id="path20570"
         d="m 74.2658,64.785059 53.7242,0"
         style="fill:none;stroke:#000000;stroke-width:1px;stroke-linecap:butt;stroke-linejoin:miter;stroke-opacity:1" />
      <path
         style="fill:none;stroke:#000000;stroke-width:1px;stroke-linecap:butt;stroke-linejoin:miter;stroke-opacity:1"
         d="m 101.1279,37.922959 0,53.7242"
         id="path20572"
         inkscape:connector-curvature="0" />
    </g>
    <g
       style="display:inline;filter:url(#filter20378)"
       id="g20574"
       transform="translate(351.28155,-5.90392)">
      <path
         style="fill:none;stroke:#000000;stroke-width:1px;stroke-linecap:butt;stroke-linejoin:miter;stroke-opacity:1"
         d="m 74.2658,64.785059 53.7242,0"
         id="path20576"
         inkscape:connector-curvature="0" />
      <path
         inkscape:connector-curvature="0"
         id="path20578"
         d="m 101.1279,37.922959 0,53.7242"
         style="fill:none;stroke:#000000;stroke-width:1px;stroke-linecap:butt;stroke-linejoin:miter;stroke-opacity:1" />
    </g>
  </g>
  <g
     inkscape:groupmode="layer"
     id="layer3"
     inkscape:label="icons"
     style="display:inline">
    <g
       transform="matrix(1.3162145,0,0,1.3162145,65.149908,308.74252)"
       id="g3762">
      <path
         inkscape:connector-curvature="0"
         id="path3-78"
         d="m 16.84375,37.03125 c -1.805127,0.201387 -3.820125,1.5035 -5.71875,5.1875 C 8.3370001,47.62275 3.2759999,50.8135 0,52.3125 l 0,16.09375 c 3.2759999,-1.499 8.3370001,-4.6585 11.125,-10.0625 5.063,-9.824 11.09375,-2.78125 11.09375,-2.78125 -4.795,0.425 -3.64025,5.6755 -2.78125,8.3125 1.026,3.155 3.8145,5.1375 5.5625,5.5625 l 2.78125,0 c 1.772,-0.351 4.48675,-3.60875 8.34375,-11.09375 5.068,-9.824 11.09375,-2.78125 11.09375,-2.78125 -4.785,0.425 -3.65025,5.6755 -2.78125,8.3125 1.026,3.155 3.7995,5.1375 5.5625,5.5625 l 2.78125,0 c 1.777,-0.351 4.48675,-3.60875 8.34375,-11.09375 5.073,-9.824 11.09375,-2.78125 11.09375,-2.78125 -4.785,0.425 -3.65025,5.6755 -2.78125,8.3125 1.026,3.155 3.8045,5.1375 5.5625,5.5625 l 2.78125,0 c 1.763,-0.351 4.50575,-3.60875 8.34375,-11.09375 5.078,-9.824 11.09375,-2.78125 11.09375,-2.78125 -4.785,0.425 -3.65025,5.70675 -2.78125,8.34375 0.674,2.09 3.3315,3.64175 5.5625,4.59375 l 0,-16.125 c -2.231,-0.952 -4.8885,-2.50375 -5.5625,-4.59375 -0.869,-2.637 -2.00375,-7.91875 2.78125,-8.34375 0,0 -6.01575,-7.0115 -11.09375,2.8125 -3.838,7.485 -6.58075,10.74275 -8.34375,11.09375 l -2.78125,0 c -1.758,-0.425 -4.5365,-2.4075 -5.5625,-5.5625 -0.869,-2.637 -2.00375,-7.91875 2.78125,-8.34375 0,0 -6.02075,-7.04275 -11.09375,2.78125 -3.857,7.485 -6.56675,10.774 -8.34375,11.125 l -2.78125,0 c -1.763,-0.425 -4.5365,-2.4075 -5.5625,-5.5625 -0.869,-2.637 -2.00375,-7.91875 2.78125,-8.34375 0,0 -6.02575,-7.04275 -11.09375,2.78125 -3.857,7.485 -6.57175,10.774 -8.34375,11.125 l -2.78125,0 c -1.748,-0.425 -4.5365,-2.4075 -5.5625,-5.5625 -0.859,-2.637 -2.01375,-7.91875 2.78125,-8.34375 0,0 -2.366455,-2.741895 -5.375,-2.40625 z" />
      <path
         inkscape:connector-curvature="0"
         id="path5-0"
         d="m 19.448,69.448 c 0,0 -6.05,-7.046 -11.113,2.778 C 6.26,76.25 2.93,79.023 0,80.811 V 91.67 h 100 v -8.335 c -1.763,-0.425 -7.31,-2.397 -8.33,-5.552 -0.869,-2.646 -2.007,-7.91 2.778,-8.335 0,0 -6.03,-7.046 -11.113,2.778 -3.838,7.49 -6.567,10.757 -8.33,11.108 h -2.778 c -1.758,-0.425 -4.531,-2.397 -5.557,-5.552 -0.869,-2.646 -2.007,-7.91 2.778,-8.335 0,0 -6.04,-7.046 -11.113,2.778 -3.857,7.49 -6.558,10.757 -8.33,11.108 h -2.778 c -1.763,-0.425 -4.531,-2.397 -5.557,-5.552 -0.864,-2.646 -2.007,-7.91 2.778,-8.335 0,0 -6.045,-7.046 -11.108,2.778 -3.862,7.49 -6.558,10.757 -8.34,11.108 H 22.227 C 20.474,82.907 17.696,80.935 16.67,77.78 15.811,75.137 14.653,69.873 19.448,69.448 z" />
    </g>
    <path
       inkscape:connector-curvature="0"
       d="M 685.25559,146.43691 H 541.01213 l 7.15592,-12.40638 22.27552,-38.605317 c 3.94361,-6.81839 10.37687,-6.81839 14.31183,0 0,0 5.17402,8.958957 5.79426,10.010497 2.95844,-5.12786 18.75309,-32.492284 18.75309,-32.492284 3.95372,-6.818383 10.37688,-6.818383 14.32194,0 l 31.36429,54.353824 c 1.61553,-2.80698 3.21231,-5.5678 4.4427,-7.69972 2.84593,-4.93024 7.48335,-4.93024 10.33937,0 2.84593,4.92015 7.49345,12.96749 10.34803,17.88908 l 5.13651,8.9503 z"
       id="path3-7"
       inkscape:transform-center-y="-7.6182826" />
    <g
       transform="matrix(1.5138613,0,0,1.5138613,50.716811,123.84302)"
       id="g2994"
       inkscape:transform-center-x="4.5507563"
       inkscape:transform-center-y="-8.7326648">
      <path
         inkscape:connector-curvature="0"
         id="path3-3"
         d="M 6.77,61.333 C 11.474,52.78 26.585,46.448 44.702,46.122 44.178,46.113 43.655,46.103 43.126,46.103 22.967,46.103 5.988,52.547 0.8,61.333 h 5.97 z" />
      <path
         inkscape:connector-curvature="0"
         id="path5"
         d="m 21.151,61.333 c 3.812,-8.446 15.953,-14.73 30.577,-15.201 -0.652,-0.019 -1.307,-0.029 -1.965,-0.029 -17.117,0 -31.532,6.444 -35.937,15.23 h 7.325 z" />
      <path
         inkscape:connector-curvature="0"
         id="path7"
         d="M 37.17,61.333 C 40.018,53.007 48.988,46.784 59.854,46.16 59.166,46.126 58.479,46.102 57.78,46.102 c -13.439,0 -24.758,6.444 -28.216,15.23 h 7.606 z" />
      <path
         inkscape:connector-curvature="0"
         id="path9"
         d="m 53.716,61.333 c 1.846,-8.079 7.549,-14.176 14.521,-15.102 -0.756,-0.081 -1.521,-0.128 -2.299,-0.128 -9.697,0 -17.851,6.448 -20.349,15.23 h 8.127 z" />
      <path
         inkscape:connector-curvature="0"
         id="path11"
         d="m 99.2,61.333 c -1.533,-2.318 -3.721,-4.479 -6.201,-6.382 v -4.247 c 1.338,-0.167 2.389,-1.686 2.389,-3.555 0,-1.981 -1.178,-3.587 -2.627,-3.587 -1.451,0 -2.627,1.606 -2.627,3.587 0,1.758 0.928,3.215 2.148,3.522 v 3.746 c -1.83,-1.341 -3.789,-2.543 -5.744,-3.572 v -4.779 c 1.549,-0.187 2.766,-1.883 2.766,-3.973 0,-2.214 -1.844,-4.009 -3.041,-4.009 -1.199,0 -3.043,1.795 -3.043,4.009 0,1.965 1.074,3.592 2.49,3.936 v 4.39 c -4.357,-2.188 -8.57,-3.486 -11.062,-3.486 -5.588,0 -10.316,6.06 -11.887,14.401 H 99.2 z" />
    </g>
    <path
       inkscape:connector-curvature="0"
       d="m 343.65645,136.36994 h 21.90947 l -11.70385,-12.51211 h 8.64977 l -12.54196,-12.12419 h 6.95296 L 344.13751,99.374845 h 6.7096 l -17.9082,-17.310882 -8.64617,8.357558 -13.16193,-12.723597 -11.11525,10.74276 -8.72901,-8.438824 -8.33181,8.053966 -10.71651,-10.358422 -13.16297,12.723597 -8.64618,-8.357532 -17.90819,17.310856 h 6.71063 l -12.78481,12.358795 h 6.95296 l -12.54248,12.12419 h 8.65081 l -11.70385,12.51211 h 21.90895 l -6.75489,7.22101 h 23.54146 l -8.21245,8.77995 h 85.99968 l -8.21296,-8.77995 h 24.33738 l -6.75487,-7.22049 z m -96.31487,-8.15533 -4.74061,5.06834 h -17.68231 l 11.70384,-12.51213 h -8.13014 l 12.54249,-12.12418 h -6.95348 l 12.78481,-12.359324 h -6.70908 l 10.27302,-9.930361 6.42507,6.210536 -5.75005,5.558131 H 259.35 L 243.6382,113.3147 h 8.54483 l -15.41392,14.89991 h 10.57247 z m 79.83081,21.06928 h -71.77064 l 15.88002,-16.97694 H 260.15726 L 277.1764,115.8558 h -9.43542 l 17.34841,-16.770125 h -9.10303 l 15.30071,-14.791343 6.50842,6.291827 0,0 8.79279,8.499516 h -9.10303 l 17.34841,16.770125 h -9.4349 l 17.01862,16.45115 h -11.12503 l 10.55447,11.284 0,0 5.32557,5.69294 z m 8.85608,-21.06928 H 346.5999 L 331.186,113.3147 h 8.5443 L 324.02006,98.125622 h 8.24382 l -5.75004,-5.558131 6.42507,-6.210536 10.27302,9.930361 h -6.70959 l 12.78531,12.359324 h -6.95293 l 12.54193,12.12418 h -8.1296 l 11.70386,12.51213 h -17.68183 l -4.74061,-5.06834 z"
       id="path3-9" />
    <g
       transform="matrix(1.4711677,0,0,1.4711677,374.69771,151.23494)"
       id="g4007">
      <g
         transform="matrix(0.31646813,0,0,0.31646813,69.759942,13.322172)"
         id="g3808">
        <path
           id="path3035"
           style="fill:#000000;fill-opacity:1;stroke:#000000;stroke-width:6;stroke-linecap:butt;stroke-linejoin:round;stroke-miterlimit:4;stroke-opacity:1;stroke-dasharray:none"
           d="M -28.600933,0 C -15.455545,-4.4483111 7.8705684,1.1274024 18.7495,8.8980682 30.600154,17.362821 40.372563,27.337862 53.070619,34.956695 65.446257,42.382078 79.103105,47.337362 91.840772,53.706196 L 7.6269154,53.388407 C 26.966445,35.965699 -7.4230026,-7.9448358 -28.918721,0.3177881"
           inkscape:connector-curvature="0"
           sodipodi:nodetypes="cssccc" />
        <path
           sodipodi:nodetypes="cc"
           inkscape:connector-curvature="0"
           d="M -74.494842,35.401301 C -58.91795,26.968166 -40.226189,13.950305 -28.600933,0"
           style="fill:none;stroke:#000000;stroke-width:6;stroke-linecap:round;stroke-linejoin:round;stroke-miterlimit:4;stroke-opacity:1;stroke-dasharray:none"
           id="path3806" />
      </g>
      <g
         id="g4003">
        <path
           sodipodi:nodetypes="cssccc"
           inkscape:connector-curvature="0"
           d="m 35.484105,23.682257 c 4.160097,-1.407748 11.542068,0.356787 14.984903,2.815955 3.750354,2.678825 6.84301,5.835607 10.861541,8.246725 3.916495,2.349897 8.238452,3.918087 12.269517,5.93362 l -26.651001,-0.10057 c 6.120344,-5.513732 -4.76282,-19.410017 -11.56553,-16.79516"
           style="fill:#000000;fill-opacity:1;stroke:#000000;stroke-width:1.89880884;stroke-linecap:butt;stroke-linejoin:round;stroke-miterlimit:4;stroke-opacity:1;stroke-dasharray:none"
           id="path3820" />
        <path
           id="path3822"
           style="fill:none;stroke:#000000;stroke-width:1.89880884;stroke-linecap:round;stroke-linejoin:round;stroke-miterlimit:4;stroke-opacity:1;stroke-dasharray:none"
           d="M 6.8217079,40.376847 C 17.351737,37.167868 28.126059,32.511911 35.484105,23.682257"
           inkscape:connector-curvature="0"
           sodipodi:nodetypes="cc" />
      </g>
      <g
         id="g3868"
         transform="matrix(0.31646813,0,0,0.31646813,53.206329,48.456372)">
        <path
           id="path3870"
           style="fill:#000000;fill-opacity:1;stroke:#000000;stroke-width:6;stroke-linecap:butt;stroke-linejoin:round;stroke-miterlimit:4;stroke-opacity:1;stroke-dasharray:none"
           d="M -9.3859839,-3.9141563 C 3.7594041,-8.3624674 27.085517,-2.7867539 37.964449,4.9839119 49.815103,13.448665 59.587512,23.423706 72.285568,31.042539 84.661206,38.467922 98.318054,43.423206 111.05572,49.79204 L 26.841864,49.474251 C 46.181394,32.051543 11.791946,-11.858992 -9.7037719,-3.5963682"
           inkscape:connector-curvature="0"
           sodipodi:nodetypes="cssccc" />
        <path
           sodipodi:nodetypes="cc"
           inkscape:connector-curvature="0"
           d="M -99.955601,48.838675 C -66.682015,38.698699 -32.636495,23.986453 -9.3859839,-3.9141563"
           style="fill:none;stroke:#000000;stroke-width:6;stroke-linecap:round;stroke-linejoin:round;stroke-miterlimit:4;stroke-opacity:1;stroke-dasharray:none"
           id="path3872" />
      </g>
      <path
         style="stroke:#000000;stroke-opacity:1"
         id="path3-1"
         d="m 24.104035,20.755276 c -0.780789,0 -1.413633,0.63249 -1.413633,1.413635 v 4.94772 H 19.863487 V 13.989722 h -0.0053 c -0.02761,-0.952452 -0.803443,-1.716607 -1.762266,-1.716607 -0.958822,0 -1.734657,0.764155 -1.762264,1.71696 h -0.0047 v 0.04672 c 0,0.0011 -3.53e-4,0.0021 -3.53e-4,0.0036 0,0.0014 3.53e-4,0.002 3.53e-4,0.0035 v 16.25431 h -2.827979 v -4.948429 c 0,-0.781145 -0.633198,-1.413634 -1.413635,-1.413634 -0.780791,0 -1.413634,0.632843 -1.413634,1.413634 v 6.361709 c 0,0.781144 0.632137,1.412926 1.411865,1.413635 7.08e-4,0 0.0011,0 0.0018,0 7.08e-4,0 0.0011,0 0.0018,0 h 4.239847 v 14.542003 h 3.534441 V 29.944254 c 0,0 4.241611,0 4.242318,0 0.77973,-7.08e-4 1.411865,-0.633198 1.411865,-1.413634 v -6.361709 c 0,-0.781145 -0.632844,-1.413635 -1.413635,-1.413635 z"
         inkscape:connector-curvature="0" />
    </g>
    <g
       inkscape:transform-center-y="-8.7326648"
       inkscape:transform-center-x="4.5507563"
       id="g20217"
       transform="matrix(1.5138613,0,0,1.5138613,211.44122,216.63726)">
      <path
         d="M 6.77,61.333 C 11.474,52.78 26.585,46.448 44.702,46.122 44.178,46.113 43.655,46.103 43.126,46.103 22.967,46.103 5.988,52.547 0.8,61.333 h 5.97 z"
         id="path20219"
         inkscape:connector-curvature="0" />
      <path
         d="m 21.151,61.333 c 3.812,-8.446 15.953,-14.73 30.577,-15.201 -0.652,-0.019 -1.307,-0.029 -1.965,-0.029 -17.117,0 -31.532,6.444 -35.937,15.23 h 7.325 z"
         id="path20221"
         inkscape:connector-curvature="0" />
      <path
         d="M 37.17,61.333 C 40.018,53.007 48.988,46.784 59.854,46.16 59.166,46.126 58.479,46.102 57.78,46.102 c -13.439,0 -24.758,6.444 -28.216,15.23 h 7.606 z"
         id="path20223"
         inkscape:connector-curvature="0" />
      <path
         d="m 53.716,61.333 c 1.846,-8.079 7.549,-14.176 14.521,-15.102 -0.756,-0.081 -1.521,-0.128 -2.299,-0.128 -9.697,0 -17.851,6.448 -20.349,15.23 h 8.127 z"
         id="path20225"
         inkscape:connector-curvature="0" />
      <path
         d="m 99.2,61.333 c -1.533,-2.318 -3.721,-4.479 -6.201,-6.382 v -4.247 c 1.338,-0.167 2.389,-1.686 2.389,-3.555 0,-1.981 -1.178,-3.587 -2.627,-3.587 -1.451,0 -2.627,1.606 -2.627,3.587 0,1.758 0.928,3.215 2.148,3.522 v 3.746 c -1.83,-1.341 -3.789,-2.543 -5.744,-3.572 v -4.779 c 1.549,-0.187 2.766,-1.883 2.766,-3.973 0,-2.214 -1.844,-4.009 -3.041,-4.009 -1.199,0 -3.043,1.795 -3.043,4.009 0,1.965 1.074,3.592 2.49,3.936 v 4.39 c -4.357,-2.188 -8.57,-3.486 -11.062,-3.486 -5.588,0 -10.316,6.06 -11.887,14.401 H 99.2 z"
         id="path20227"
         inkscape:connector-curvature="0" />
    </g>
    <g
       transform="matrix(1.5138613,0,0,1.5138613,372.16562,309.43154)"
       id="g20229"
       inkscape:transform-center-x="4.5507563"
       inkscape:transform-center-y="-8.7326648">
      <path
         inkscape:connector-curvature="0"
         id="path20231"
         d="M 6.77,61.333 C 11.474,52.78 26.585,46.448 44.702,46.122 44.178,46.113 43.655,46.103 43.126,46.103 22.967,46.103 5.988,52.547 0.8,61.333 h 5.97 z" />
      <path
         inkscape:connector-curvature="0"
         id="path20233"
         d="m 21.151,61.333 c 3.812,-8.446 15.953,-14.73 30.577,-15.201 -0.652,-0.019 -1.307,-0.029 -1.965,-0.029 -17.117,0 -31.532,6.444 -35.937,15.23 h 7.325 z" />
      <path
         inkscape:connector-curvature="0"
         id="path20235"
         d="M 37.17,61.333 C 40.018,53.007 48.988,46.784 59.854,46.16 59.166,46.126 58.479,46.102 57.78,46.102 c -13.439,0 -24.758,6.444 -28.216,15.23 h 7.606 z" />
      <path
         inkscape:connector-curvature="0"
         id="path20237"
         d="m 53.716,61.333 c 1.846,-8.079 7.549,-14.176 14.521,-15.102 -0.756,-0.081 -1.521,-0.128 -2.299,-0.128 -9.697,0 -17.851,6.448 -20.349,15.23 h 8.127 z" />
      <path
         inkscape:connector-curvature="0"
         id="path20239"
         d="m 99.2,61.333 c -1.533,-2.318 -3.721,-4.479 -6.201,-6.382 v -4.247 c 1.338,-0.167 2.389,-1.686 2.389,-3.555 0,-1.981 -1.178,-3.587 -2.627,-3.587 -1.451,0 -2.627,1.606 -2.627,3.587 0,1.758 0.928,3.215 2.148,3.522 v 3.746 c -1.83,-1.341 -3.789,-2.543 -5.744,-3.572 v -4.779 c 1.549,-0.187 2.766,-1.883 2.766,-3.973 0,-2.214 -1.844,-4.009 -3.041,-4.009 -1.199,0 -3.043,1.795 -3.043,4.009 0,1.965 1.074,3.592 2.49,3.936 v 4.39 c -4.357,-2.188 -8.57,-3.486 -11.062,-3.486 -5.588,0 -10.316,6.06 -11.887,14.401 H 99.2 z" />
    </g>
    <g
       inkscape:transform-center-y="-8.7326648"
       inkscape:transform-center-x="4.5507563"
       id="g20241"
       transform="matrix(1.5138613,0,0,1.5138613,532.89004,216.63726)">
      <path
         d="M 6.77,61.333 C 11.474,52.78 26.585,46.448 44.702,46.122 44.178,46.113 43.655,46.103 43.126,46.103 22.967,46.103 5.988,52.547 0.8,61.333 h 5.97 z"
         id="path20243"
         inkscape:connector-curvature="0" />
      <path
         d="m 21.151,61.333 c 3.812,-8.446 15.953,-14.73 30.577,-15.201 -0.652,-0.019 -1.307,-0.029 -1.965,-0.029 -17.117,0 -31.532,6.444 -35.937,15.23 h 7.325 z"
         id="path20245"
         inkscape:connector-curvature="0" />
      <path
         d="M 37.17,61.333 C 40.018,53.007 48.988,46.784 59.854,46.16 59.166,46.126 58.479,46.102 57.78,46.102 c -13.439,0 -24.758,6.444 -28.216,15.23 h 7.606 z"
         id="path20247"
         inkscape:connector-curvature="0" />
      <path
         d="m 53.716,61.333 c 1.846,-8.079 7.549,-14.176 14.521,-15.102 -0.756,-0.081 -1.521,-0.128 -2.299,-0.128 -9.697,0 -17.851,6.448 -20.349,15.23 h 8.127 z"
         id="path20249"
         inkscape:connector-curvature="0" />
      <path
         d="m 99.2,61.333 c -1.533,-2.318 -3.721,-4.479 -6.201,-6.382 v -4.247 c 1.338,-0.167 2.389,-1.686 2.389,-3.555 0,-1.981 -1.178,-3.587 -2.627,-3.587 -1.451,0 -2.627,1.606 -2.627,3.587 0,1.758 0.928,3.215 2.148,3.522 v 3.746 c -1.83,-1.341 -3.789,-2.543 -5.744,-3.572 v -4.779 c 1.549,-0.187 2.766,-1.883 2.766,-3.973 0,-2.214 -1.844,-4.009 -3.041,-4.009 -1.199,0 -3.043,1.795 -3.043,4.009 0,1.965 1.074,3.592 2.49,3.936 v 4.39 c -4.357,-2.188 -8.57,-3.486 -11.062,-3.486 -5.588,0 -10.316,6.06 -11.887,14.401 H 99.2 z"
         id="path20251"
         inkscape:connector-curvature="0" />
    </g>
    <g
       transform="matrix(1.5138613,0,0,1.5138613,211.44122,402.22581)"
       id="g20253"
       inkscape:transform-center-x="4.5507563"
       inkscape:transform-center-y="-8.7326648">
      <path
         inkscape:connector-curvature="0"
         id="path20255"
         d="M 6.77,61.333 C 11.474,52.78 26.585,46.448 44.702,46.122 44.178,46.113 43.655,46.103 43.126,46.103 22.967,46.103 5.988,52.547 0.8,61.333 h 5.97 z" />
      <path
         inkscape:connector-curvature="0"
         id="path20257"
         d="m 21.151,61.333 c 3.812,-8.446 15.953,-14.73 30.577,-15.201 -0.652,-0.019 -1.307,-0.029 -1.965,-0.029 -17.117,0 -31.532,6.444 -35.937,15.23 h 7.325 z" />
      <path
         inkscape:connector-curvature="0"
         id="path20259"
         d="M 37.17,61.333 C 40.018,53.007 48.988,46.784 59.854,46.16 59.166,46.126 58.479,46.102 57.78,46.102 c -13.439,0 -24.758,6.444 -28.216,15.23 h 7.606 z" />
      <path
         inkscape:connector-curvature="0"
         id="path20261"
         d="m 53.716,61.333 c 1.846,-8.079 7.549,-14.176 14.521,-15.102 -0.756,-0.081 -1.521,-0.128 -2.299,-0.128 -9.697,0 -17.851,6.448 -20.349,15.23 h 8.127 z" />
      <path
         inkscape:connector-curvature="0"
         id="path20263"
         d="m 99.2,61.333 c -1.533,-2.318 -3.721,-4.479 -6.201,-6.382 v -4.247 c 1.338,-0.167 2.389,-1.686 2.389,-3.555 0,-1.981 -1.178,-3.587 -2.627,-3.587 -1.451,0 -2.627,1.606 -2.627,3.587 0,1.758 0.928,3.215 2.148,3.522 v 3.746 c -1.83,-1.341 -3.789,-2.543 -5.744,-3.572 v -4.779 c 1.549,-0.187 2.766,-1.883 2.766,-3.973 0,-2.214 -1.844,-4.009 -3.041,-4.009 -1.199,0 -3.043,1.795 -3.043,4.009 0,1.965 1.074,3.592 2.49,3.936 v 4.39 c -4.357,-2.188 -8.57,-3.486 -11.062,-3.486 -5.588,0 -10.316,6.06 -11.887,14.401 H 99.2 z" />
    </g>
    <g
       inkscape:transform-center-y="-8.7326648"
       inkscape:transform-center-x="4.5507563"
       id="g20265"
       transform="matrix(1.5138613,0,0,1.5138613,50.716811,495.02014)">
      <path
         d="M 6.77,61.333 C 11.474,52.78 26.585,46.448 44.702,46.122 44.178,46.113 43.655,46.103 43.126,46.103 22.967,46.103 5.988,52.547 0.8,61.333 h 5.97 z"
         id="path20267"
         inkscape:connector-curvature="0" />
      <path
         d="m 21.151,61.333 c 3.812,-8.446 15.953,-14.73 30.577,-15.201 -0.652,-0.019 -1.307,-0.029 -1.965,-0.029 -17.117,0 -31.532,6.444 -35.937,15.23 h 7.325 z"
         id="path20269"
         inkscape:connector-curvature="0" />
      <path
         d="M 37.17,61.333 C 40.018,53.007 48.988,46.784 59.854,46.16 59.166,46.126 58.479,46.102 57.78,46.102 c -13.439,0 -24.758,6.444 -28.216,15.23 h 7.606 z"
         id="path20271"
         inkscape:connector-curvature="0" />
      <path
         d="m 53.716,61.333 c 1.846,-8.079 7.549,-14.176 14.521,-15.102 -0.756,-0.081 -1.521,-0.128 -2.299,-0.128 -9.697,0 -17.851,6.448 -20.349,15.23 h 8.127 z"
         id="path20273"
         inkscape:connector-curvature="0" />
      <path
         d="m 99.2,61.333 c -1.533,-2.318 -3.721,-4.479 -6.201,-6.382 v -4.247 c 1.338,-0.167 2.389,-1.686 2.389,-3.555 0,-1.981 -1.178,-3.587 -2.627,-3.587 -1.451,0 -2.627,1.606 -2.627,3.587 0,1.758 0.928,3.215 2.148,3.522 v 3.746 c -1.83,-1.341 -3.789,-2.543 -5.744,-3.572 v -4.779 c 1.549,-0.187 2.766,-1.883 2.766,-3.973 0,-2.214 -1.844,-4.009 -3.041,-4.009 -1.199,0 -3.043,1.795 -3.043,4.009 0,1.965 1.074,3.592 2.49,3.936 v 4.39 c -4.357,-2.188 -8.57,-3.486 -11.062,-3.486 -5.588,0 -10.316,6.06 -11.887,14.401 H 99.2 z"
         id="path20275"
         inkscape:connector-curvature="0" />
    </g>
    <path
       id="path20277"
       d="m 665.10527,507.54706 h 21.90947 l -11.70385,-12.51211 h 8.64977 L 671.4187,482.91076 h 6.95296 l -12.78533,-12.3588 h 6.7096 l -17.9082,-17.31088 -8.64617,8.35756 -13.16193,-12.7236 -11.11525,10.74276 -8.72901,-8.43882 -8.33181,8.05396 -10.71651,-10.35842 -13.16297,12.7236 -8.64618,-8.35753 -17.90819,17.31085 h 6.71063 l -12.78481,12.3588 h 6.95296 l -12.54248,12.12419 h 8.65081 l -11.70385,12.51211 h 21.90895 l -6.75489,7.22101 h 23.54146 l -8.21245,8.77995 h 85.99968 l -8.21296,-8.77995 h 24.33738 l -6.75487,-7.22049 z m -96.31487,-8.15533 -4.74061,5.06834 h -17.68231 l 11.70384,-12.51213 h -8.13014 l 12.54249,-12.12418 h -6.95348 L 568.315,467.46443 h -6.70908 l 10.27302,-9.93036 6.42507,6.21054 -5.75005,5.55813 h 8.24486 l -15.7118,15.18908 h 8.54483 l -15.41392,14.89991 h 10.57247 z m 79.83081,21.06928 h -71.77064 l 15.88002,-16.97694 h -11.12451 l 17.01914,-16.45115 h -9.43542 l 17.34841,-16.77013 h -9.10303 l 15.30071,-14.79134 6.50842,6.29183 0,0 8.79279,8.49951 h -9.10303 l 17.34841,16.77013 h -9.4349 l 17.01862,16.45115 h -11.12503 l 10.55447,11.284 0,0 5.32557,5.69294 z m 8.85608,-21.06928 h 10.57143 l -15.4139,-14.89991 h 8.5443 l -15.71024,-15.18908 h 8.24382 l -5.75004,-5.55813 6.42507,-6.21054 10.27302,9.93036 h -6.70959 l 12.78531,12.35933 h -6.95293 l 12.54193,12.12418 h -8.1296 l 11.70386,12.51213 H 662.2179 l -4.74061,-5.06834 z"
       inkscape:connector-curvature="0" />
    <path
       inkscape:connector-curvature="0"
       d="m 504.38086,600.34135 h 21.90947 l -11.70385,-12.51211 h 8.64977 l -12.54196,-12.12419 h 6.95296 l -12.78533,-12.3588 h 6.7096 l -17.9082,-17.31088 -8.64617,8.35756 -13.16193,-12.7236 -11.11525,10.74276 -8.72901,-8.43882 -8.33181,8.05396 -10.71651,-10.35842 -13.16297,12.7236 -8.64618,-8.35753 -17.90819,17.31085 h 6.71063 l -12.78481,12.3588 h 6.95296 l -12.54248,12.12419 h 8.65081 l -11.70385,12.51211 h 21.90895 l -6.75489,7.22101 h 23.54146 l -8.21245,8.77995 h 85.99968 l -8.21296,-8.77995 h 24.33738 l -6.75487,-7.22049 z m -96.31487,-8.15533 -4.74061,5.06834 h -17.68231 l 11.70384,-12.51213 h -8.13014 l 12.54249,-12.12418 h -6.95348 l 12.78481,-12.35933 h -6.70908 l 10.27302,-9.93036 6.42507,6.21054 -5.75005,5.55813 h 8.24486 l -15.7118,15.18908 h 8.54483 l -15.41392,14.89991 h 10.57247 z m 79.83081,21.06928 h -71.77064 l 15.88002,-16.97694 h -11.12451 l 17.01914,-16.45115 h -9.43542 l 17.34841,-16.77013 h -9.10303 l 15.30071,-14.79134 6.50842,6.29183 0,0 8.79279,8.49951 h -9.10303 l 17.34841,16.77013 h -9.4349 l 17.01862,16.45115 h -11.12503 l 10.55447,11.284 0,0 5.32557,5.69294 z m 8.85608,-21.06928 h 10.57143 l -15.4139,-14.89991 h 8.5443 l -15.71024,-15.18908 h 8.24382 l -5.75004,-5.55813 6.42507,-6.21054 10.27302,9.93036 h -6.70959 l 12.78531,12.35933 h -6.95293 l 12.54193,12.12418 h -8.1296 l 11.70386,12.51213 h -17.68183 l -4.74061,-5.06834 z"
       id="path20279" />
    <path
       inkscape:transform-center-y="-7.6182826"
       id="path20281"
       d="M 685.25559,703.48493 H 541.01213 l 7.15592,-12.40638 22.27552,-38.60531 c 3.94361,-6.81839 10.37687,-6.81839 14.31183,0 0,0 5.17402,8.95895 5.79426,10.01049 2.95844,-5.12786 18.75309,-32.49228 18.75309,-32.49228 3.95372,-6.81838 10.37688,-6.81838 14.32194,0 l 31.36429,54.35382 c 1.61553,-2.80698 3.21231,-5.5678 4.4427,-7.69972 2.84593,-4.93024 7.48335,-4.93024 10.33937,0 2.84593,4.92015 7.49345,12.96749 10.34803,17.88908 l 5.13651,8.9503 z"
       inkscape:connector-curvature="0" />
    <path
       inkscape:connector-curvature="0"
       d="M 685.25559,889.0735 H 541.01213 l 7.15592,-12.40638 22.27552,-38.60531 c 3.94361,-6.81839 10.37687,-6.81839 14.31183,0 0,0 5.17402,8.95895 5.79426,10.01049 2.95844,-5.12786 18.75309,-32.49228 18.75309,-32.49228 3.95372,-6.81838 10.37688,-6.81838 14.32194,0 l 31.36429,54.35382 c 1.61553,-2.80698 3.21231,-5.5678 4.4427,-7.69972 2.84593,-4.93024 7.48335,-4.93024 10.33937,0 2.84593,4.92015 7.49345,12.96749 10.34803,17.88908 l 5.13651,8.9503 z"
       id="path20283"
       inkscape:transform-center-y="-7.6182826" />
    <g
       id="g20285"
       transform="matrix(1.4711677,0,0,1.4711677,374.69771,708.00062)">
      <g
         id="g20287"
         transform="matrix(0.31646813,0,0,0.31646813,69.759942,13.322172)">
        <path
           sodipodi:nodetypes="cssccc"
           inkscape:connector-curvature="0"
           d="M -28.600933,0 C -15.455545,-4.4483111 7.8705684,1.1274024 18.7495,8.8980682 30.600154,17.362821 40.372563,27.337862 53.070619,34.956695 65.446257,42.382078 79.103105,47.337362 91.840772,53.706196 L 7.6269154,53.388407 C 26.966445,35.965699 -7.4230026,-7.9448358 -28.918721,0.3177881"
           style="fill:#000000;fill-opacity:1;stroke:#000000;stroke-width:6;stroke-linecap:butt;stroke-linejoin:round;stroke-miterlimit:4;stroke-opacity:1;stroke-dasharray:none"
           id="path20289" />
        <path
           id="path20291"
           style="fill:none;stroke:#000000;stroke-width:6;stroke-linecap:round;stroke-linejoin:round;stroke-miterlimit:4;stroke-opacity:1;stroke-dasharray:none"
           d="M -74.494842,35.401301 C -58.91795,26.968166 -40.226189,13.950305 -28.600933,0"
           inkscape:connector-curvature="0"
           sodipodi:nodetypes="cc" />
      </g>
      <g
         id="g20293">
        <path
           id="path20295"
           style="fill:#000000;fill-opacity:1;stroke:#000000;stroke-width:1.89880884;stroke-linecap:butt;stroke-linejoin:round;stroke-miterlimit:4;stroke-opacity:1;stroke-dasharray:none"
           d="m 35.484105,23.682257 c 4.160097,-1.407748 11.542068,0.356787 14.984903,2.815955 3.750354,2.678825 6.84301,5.835607 10.861541,8.246725 3.916495,2.349897 8.238452,3.918087 12.269517,5.93362 l -26.651001,-0.10057 c 6.120344,-5.513732 -4.76282,-19.410017 -11.56553,-16.79516"
           inkscape:connector-curvature="0"
           sodipodi:nodetypes="cssccc" />
        <path
           sodipodi:nodetypes="cc"
           inkscape:connector-curvature="0"
           d="M 6.8217079,40.376847 C 17.351737,37.167868 28.126059,32.511911 35.484105,23.682257"
           style="fill:none;stroke:#000000;stroke-width:1.89880884;stroke-linecap:round;stroke-linejoin:round;stroke-miterlimit:4;stroke-opacity:1;stroke-dasharray:none"
           id="path20297" />
      </g>
      <g
         transform="matrix(0.31646813,0,0,0.31646813,53.206329,48.456372)"
         id="g20299">
        <path
           sodipodi:nodetypes="cssccc"
           inkscape:connector-curvature="0"
           d="M -9.3859839,-3.9141563 C 3.7594041,-8.3624674 27.085517,-2.7867539 37.964449,4.9839119 49.815103,13.448665 59.587512,23.423706 72.285568,31.042539 84.661206,38.467922 98.318054,43.423206 111.05572,49.79204 L 26.841864,49.474251 C 46.181394,32.051543 11.791946,-11.858992 -9.7037719,-3.5963682"
           style="fill:#000000;fill-opacity:1;stroke:#000000;stroke-width:6;stroke-linecap:butt;stroke-linejoin:round;stroke-miterlimit:4;stroke-opacity:1;stroke-dasharray:none"
           id="path20301" />
        <path
           id="path20303"
           style="fill:none;stroke:#000000;stroke-width:6;stroke-linecap:round;stroke-linejoin:round;stroke-miterlimit:4;stroke-opacity:1;stroke-dasharray:none"
           d="M -99.955601,48.838675 C -66.682015,38.698699 -32.636495,23.986453 -9.3859839,-3.9141563"
           inkscape:connector-curvature="0"
           sodipodi:nodetypes="cc" />
      </g>
      <path
         inkscape:connector-curvature="0"
         d="m 24.104035,20.755276 c -0.780789,0 -1.413633,0.63249 -1.413633,1.413635 v 4.94772 H 19.863487 V 13.989722 h -0.0053 c -0.02761,-0.952452 -0.803443,-1.716607 -1.762266,-1.716607 -0.958822,0 -1.734657,0.764155 -1.762264,1.71696 h -0.0047 v 0.04672 c 0,0.0011 -3.53e-4,0.0021 -3.53e-4,0.0036 0,0.0014 3.53e-4,0.002 3.53e-4,0.0035 v 16.25431 h -2.827979 v -4.948429 c 0,-0.781145 -0.633198,-1.413634 -1.413635,-1.413634 -0.780791,0 -1.413634,0.632843 -1.413634,1.413634 v 6.361709 c 0,0.781144 0.632137,1.412926 1.411865,1.413635 7.08e-4,0 0.0011,0 0.0018,0 7.08e-4,0 0.0011,0 0.0018,0 h 4.239847 v 14.542003 h 3.534441 V 29.944254 c 0,0 4.241611,0 4.242318,0 0.77973,-7.08e-4 1.411865,-0.633198 1.411865,-1.413634 v -6.361709 c 0,-0.781145 -0.632844,-1.413635 -1.413635,-1.413635 z"
         id="path20305"
         style="stroke:#000000;stroke-opacity:1" />
    </g>
    <g
       transform="matrix(1.4711677,0,0,1.4711677,213.97331,800.79492)"
       id="g20307">
      <g
         transform="matrix(0.31646813,0,0,0.31646813,69.759942,13.322172)"
         id="g20309">
        <path
           id="path20311"
           style="fill:#000000;fill-opacity:1;stroke:#000000;stroke-width:6;stroke-linecap:butt;stroke-linejoin:round;stroke-miterlimit:4;stroke-opacity:1;stroke-dasharray:none"
           d="M -28.600933,0 C -15.455545,-4.4483111 7.8705684,1.1274024 18.7495,8.8980682 30.600154,17.362821 40.372563,27.337862 53.070619,34.956695 65.446257,42.382078 79.103105,47.337362 91.840772,53.706196 L 7.6269154,53.388407 C 26.966445,35.965699 -7.4230026,-7.9448358 -28.918721,0.3177881"
           inkscape:connector-curvature="0"
           sodipodi:nodetypes="cssccc" />
        <path
           sodipodi:nodetypes="cc"
           inkscape:connector-curvature="0"
           d="M -74.494842,35.401301 C -58.91795,26.968166 -40.226189,13.950305 -28.600933,0"
           style="fill:none;stroke:#000000;stroke-width:6;stroke-linecap:round;stroke-linejoin:round;stroke-miterlimit:4;stroke-opacity:1;stroke-dasharray:none"
           id="path20313" />
      </g>
      <g
         id="g20315">
        <path
           sodipodi:nodetypes="cssccc"
           inkscape:connector-curvature="0"
           d="m 35.484105,23.682257 c 4.160097,-1.407748 11.542068,0.356787 14.984903,2.815955 3.750354,2.678825 6.84301,5.835607 10.861541,8.246725 3.916495,2.349897 8.238452,3.918087 12.269517,5.93362 l -26.651001,-0.10057 c 6.120344,-5.513732 -4.76282,-19.410017 -11.56553,-16.79516"
           style="fill:#000000;fill-opacity:1;stroke:#000000;stroke-width:1.89880884;stroke-linecap:butt;stroke-linejoin:round;stroke-miterlimit:4;stroke-opacity:1;stroke-dasharray:none"
           id="path20317" />
        <path
           id="path20319"
           style="fill:none;stroke:#000000;stroke-width:1.89880884;stroke-linecap:round;stroke-linejoin:round;stroke-miterlimit:4;stroke-opacity:1;stroke-dasharray:none"
           d="M 6.8217079,40.376847 C 17.351737,37.167868 28.126059,32.511911 35.484105,23.682257"
           inkscape:connector-curvature="0"
           sodipodi:nodetypes="cc" />
      </g>
      <g
         id="g20321"
         transform="matrix(0.31646813,0,0,0.31646813,53.206329,48.456372)">
        <path
           id="path20323"
           style="fill:#000000;fill-opacity:1;stroke:#000000;stroke-width:6;stroke-linecap:butt;stroke-linejoin:round;stroke-miterlimit:4;stroke-opacity:1;stroke-dasharray:none"
           d="M -9.3859839,-3.9141563 C 3.7594041,-8.3624674 27.085517,-2.7867539 37.964449,4.9839119 49.815103,13.448665 59.587512,23.423706 72.285568,31.042539 84.661206,38.467922 98.318054,43.423206 111.05572,49.79204 L 26.841864,49.474251 C 46.181394,32.051543 11.791946,-11.858992 -9.7037719,-3.5963682"
           inkscape:connector-curvature="0"
           sodipodi:nodetypes="cssccc" />
        <path
           sodipodi:nodetypes="cc"
           inkscape:connector-curvature="0"
           d="M -99.955601,48.838675 C -66.682015,38.698699 -32.636495,23.986453 -9.3859839,-3.9141563"
           style="fill:none;stroke:#000000;stroke-width:6;stroke-linecap:round;stroke-linejoin:round;stroke-miterlimit:4;stroke-opacity:1;stroke-dasharray:none"
           id="path20325" />
      </g>
      <path
         style="stroke:#000000;stroke-opacity:1"
         id="path20327"
         d="m 24.104035,20.755276 c -0.780789,0 -1.413633,0.63249 -1.413633,1.413635 v 4.94772 H 19.863487 V 13.989722 h -0.0053 c -0.02761,-0.952452 -0.803443,-1.716607 -1.762266,-1.716607 -0.958822,0 -1.734657,0.764155 -1.762264,1.71696 h -0.0047 v 0.04672 c 0,0.0011 -3.53e-4,0.0021 -3.53e-4,0.0036 0,0.0014 3.53e-4,0.002 3.53e-4,0.0035 v 16.25431 h -2.827979 v -4.948429 c 0,-0.781145 -0.633198,-1.413634 -1.413635,-1.413634 -0.780791,0 -1.413634,0.632843 -1.413634,1.413634 v 6.361709 c 0,0.781144 0.632137,1.412926 1.411865,1.413635 7.08e-4,0 0.0011,0 0.0018,0 7.08e-4,0 0.0011,0 0.0018,0 h 4.239847 v 14.542003 h 3.534441 V 29.944254 c 0,0 4.241611,0 4.242318,0 0.77973,-7.08e-4 1.411865,-0.633198 1.411865,-1.413634 v -6.361709 c 0,-0.781145 -0.632844,-1.413635 -1.413635,-1.413635 z"
         inkscape:connector-curvature="0" />
    </g>
    <g
       id="g20329"
       transform="matrix(1.3162145,0,0,1.3162145,386.59872,865.50825)">
      <path
         d="m 16.84375,37.03125 c -1.805127,0.201387 -3.820125,1.5035 -5.71875,5.1875 C 8.3370001,47.62275 3.2759999,50.8135 0,52.3125 l 0,16.09375 c 3.2759999,-1.499 8.3370001,-4.6585 11.125,-10.0625 5.063,-9.824 11.09375,-2.78125 11.09375,-2.78125 -4.795,0.425 -3.64025,5.6755 -2.78125,8.3125 1.026,3.155 3.8145,5.1375 5.5625,5.5625 l 2.78125,0 c 1.772,-0.351 4.48675,-3.60875 8.34375,-11.09375 5.068,-9.824 11.09375,-2.78125 11.09375,-2.78125 -4.785,0.425 -3.65025,5.6755 -2.78125,8.3125 1.026,3.155 3.7995,5.1375 5.5625,5.5625 l 2.78125,0 c 1.777,-0.351 4.48675,-3.60875 8.34375,-11.09375 5.073,-9.824 11.09375,-2.78125 11.09375,-2.78125 -4.785,0.425 -3.65025,5.6755 -2.78125,8.3125 1.026,3.155 3.8045,5.1375 5.5625,5.5625 l 2.78125,0 c 1.763,-0.351 4.50575,-3.60875 8.34375,-11.09375 5.078,-9.824 11.09375,-2.78125 11.09375,-2.78125 -4.785,0.425 -3.65025,5.70675 -2.78125,8.34375 0.674,2.09 3.3315,3.64175 5.5625,4.59375 l 0,-16.125 c -2.231,-0.952 -4.8885,-2.50375 -5.5625,-4.59375 -0.869,-2.637 -2.00375,-7.91875 2.78125,-8.34375 0,0 -6.01575,-7.0115 -11.09375,2.8125 -3.838,7.485 -6.58075,10.74275 -8.34375,11.09375 l -2.78125,0 c -1.758,-0.425 -4.5365,-2.4075 -5.5625,-5.5625 -0.869,-2.637 -2.00375,-7.91875 2.78125,-8.34375 0,0 -6.02075,-7.04275 -11.09375,2.78125 -3.857,7.485 -6.56675,10.774 -8.34375,11.125 l -2.78125,0 c -1.763,-0.425 -4.5365,-2.4075 -5.5625,-5.5625 -0.869,-2.637 -2.00375,-7.91875 2.78125,-8.34375 0,0 -6.02575,-7.04275 -11.09375,2.78125 -3.857,7.485 -6.57175,10.774 -8.34375,11.125 l -2.78125,0 c -1.748,-0.425 -4.5365,-2.4075 -5.5625,-5.5625 -0.859,-2.637 -2.01375,-7.91875 2.78125,-8.34375 0,0 -2.366455,-2.741895 -5.375,-2.40625 z"
         id="path20331"
         inkscape:connector-curvature="0" />
      <path
         d="m 19.448,69.448 c 0,0 -6.05,-7.046 -11.113,2.778 C 6.26,76.25 2.93,79.023 0,80.811 V 91.67 h 100 v -8.335 c -1.763,-0.425 -7.31,-2.397 -8.33,-5.552 -0.869,-2.646 -2.007,-7.91 2.778,-8.335 0,0 -6.03,-7.046 -11.113,2.778 -3.838,7.49 -6.567,10.757 -8.33,11.108 h -2.778 c -1.758,-0.425 -4.531,-2.397 -5.557,-5.552 -0.869,-2.646 -2.007,-7.91 2.778,-8.335 0,0 -6.04,-7.046 -11.113,2.778 -3.857,7.49 -6.558,10.757 -8.33,11.108 h -2.778 c -1.763,-0.425 -4.531,-2.397 -5.557,-5.552 -0.864,-2.646 -2.007,-7.91 2.778,-8.335 0,0 -6.045,-7.046 -11.108,2.778 -3.862,7.49 -6.558,10.757 -8.34,11.108 H 22.227 C 20.474,82.907 17.696,80.935 16.67,77.78 15.811,75.137 14.653,69.873 19.448,69.448 z"
         id="path20333"
         inkscape:connector-curvature="0" />
    </g>
    <path
       id="path20335"
       d="m 343.65645,693.13567 h 21.90947 l -11.70385,-12.51211 h 8.64977 l -12.54196,-12.12419 h 6.95296 l -12.78533,-12.3588 h 6.7096 l -17.9082,-17.31088 -8.64617,8.35756 -13.16193,-12.7236 -11.11525,10.74276 -8.72901,-8.43882 -8.33181,8.05396 -10.71651,-10.35842 -13.16297,12.7236 -8.64618,-8.35753 -17.90819,17.31085 h 6.71063 l -12.78481,12.3588 h 6.95296 l -12.54248,12.12419 h 8.65081 l -11.70385,12.51211 h 21.90895 l -6.75489,7.22101 h 23.54146 l -8.21245,8.77995 h 85.99968 l -8.21296,-8.77995 h 24.33738 l -6.75487,-7.22049 z m -96.31487,-8.15533 -4.74061,5.06834 h -17.68231 l 11.70384,-12.51213 h -8.13014 l 12.54249,-12.12418 h -6.95348 l 12.78481,-12.35933 h -6.70908 l 10.27302,-9.93036 6.42507,6.21054 -5.75005,5.55813 H 259.35 l -15.7118,15.18908 h 8.54483 l -15.41392,14.89991 h 10.57247 z m 79.83081,21.06928 h -71.77064 l 15.88002,-16.97694 h -11.12451 l 17.01914,-16.45115 h -9.43542 l 17.34841,-16.77013 h -9.10303 l 15.30071,-14.79134 6.50842,6.29183 0,0 8.79279,8.49951 h -9.10303 l 17.34841,16.77013 h -9.4349 l 17.01862,16.45115 h -11.12503 l 10.55447,11.284 0,0 5.32557,5.69294 z m 8.85608,-21.06928 H 346.5999 L 331.186,670.08043 h 8.5443 l -15.71024,-15.18908 h 8.24382 l -5.75004,-5.55813 6.42507,-6.21054 10.27302,9.93036 h -6.70959 l 12.78531,12.35933 h -6.95293 l 12.54193,12.12418 h -8.1296 l 11.70386,12.51213 h -17.68183 l -4.74061,-5.06834 z"
       inkscape:connector-curvature="0" />
    <path
       inkscape:connector-curvature="0"
       d="m 182.93205,785.92991 h 21.90947 L 193.13767,773.4178 h 8.64977 l -12.54196,-12.12419 h 6.95296 l -12.78533,-12.3588 h 6.7096 l -17.9082,-17.31088 -8.64617,8.35756 -13.16193,-12.7236 -11.11525,10.74276 -8.72901,-8.43882 -8.33181,8.05396 -10.71651,-10.35842 -13.162973,12.7236 -8.64618,-8.35753 -17.90819,17.31085 h 6.71063 l -12.78481,12.3588 h 6.95296 l -12.54248,12.12419 h 8.65081 l -11.70385,12.51211 h 21.90895 l -6.75489,7.22101 h 23.54146 l -8.21245,8.77995 H 173.5625 l -8.21296,-8.77995 h 24.33738 l -6.75487,-7.22049 z m -96.314873,-8.15533 -4.74061,5.06834 h -17.68231 l 11.70384,-12.51213 h -8.13014 l 12.54249,-12.12418 h -6.95348 l 12.78481,-12.35933 h -6.70908 l 10.27302,-9.93036 6.42507,6.21054 -5.75005,5.55813 h 8.24486 l -15.7118,15.18908 h 8.54483 l -15.41392,14.89991 h 10.57247 z m 79.830813,21.06928 H 94.677347 L 110.55737,781.86692 H 99.432857 L 116.452,765.41577 h -9.43542 l 17.34841,-16.77013 h -9.10303 l 15.30071,-14.79134 6.50842,6.29183 0,0 8.79279,8.49951 h -9.10303 l 17.34841,16.77013 h -9.4349 l 17.01862,16.45115 h -11.12503 l 10.55447,11.284 0,0 5.32557,5.69294 z m 8.85608,-21.06928 h 10.57143 l -15.4139,-14.89991 h 8.5443 l -15.71024,-15.18908 h 8.24382 l -5.75004,-5.55813 6.42507,-6.21054 10.27302,9.93036 h -6.70959 l 12.78531,12.35933 h -6.95293 l 12.54193,12.12418 h -8.1296 l 11.70386,12.51213 h -17.68183 l -4.74061,-5.06834 z"
       id="path20337" />
    <path
       id="path20339"
       d="m 182.93205,971.51847 h 21.90947 l -11.70385,-12.51211 h 8.64977 l -12.54196,-12.12419 h 6.95296 l -12.78533,-12.3588 h 6.7096 l -17.9082,-17.31088 -8.64617,8.35756 -13.16193,-12.7236 -11.11525,10.74276 -8.72901,-8.43882 -8.33181,8.05396 -10.71651,-10.35842 -13.162975,12.7236 -8.64618,-8.35753 -17.90819,17.31085 h 6.71063 l -12.78481,12.3588 h 6.95296 l -12.54248,12.12419 h 8.65081 l -11.70385,12.51211 h 21.90895 l -6.75489,7.22101 h 23.54146 l -8.21245,8.77995 H 173.5625 l -8.21296,-8.77995 h 24.33738 l -6.75487,-7.22049 z m -96.314875,-8.15533 -4.74061,5.06834 h -17.68231 l 11.70384,-12.51213 h -8.13014 l 12.54249,-12.12418 h -6.95348 l 12.78481,-12.35933 h -6.70908 l 10.27302,-9.93036 6.42507,6.21054 -5.75005,5.55813 h 8.244864 l -15.711804,15.18908 h 8.54483 l -15.41392,14.89991 h 10.57247 z m 79.830815,21.06928 H 94.677345 L 110.55737,967.45548 H 99.432859 L 116.452,951.00433 h -9.43542 l 17.34841,-16.77013 h -9.10303 l 15.30071,-14.79134 6.50842,6.29183 0,0 8.79279,8.49951 h -9.10303 l 17.34841,16.77013 h -9.4349 l 17.01862,16.45115 h -11.12503 l 10.55447,11.284 0,0 5.32557,5.69294 z m 8.85608,-21.06928 h 10.57143 l -15.4139,-14.89991 h 8.5443 l -15.71024,-15.18908 h 8.24382 l -5.75004,-5.55813 6.42507,-6.21054 10.27302,9.93036 h -6.70959 l 12.78531,12.35933 h -6.95293 l 12.54193,12.12418 h -8.1296 l 11.70386,12.51213 h -17.68183 l -4.74061,-5.06834 z"
       inkscape:connector-curvature="0" />
  </g>
  <g
     inkscape:groupmode="layer"
     id="layer2"
     inkscape:label="cut mark"
     style="display:none;filter:url(#filter20378)">
    <rect
       style="color:#000000;fill:#ffffff;fill-opacity:1;fill-rule:nonzero;stroke:none;stroke-width:1.06920004;marker:none;visibility:visible;display:inline;overflow:visible;enable-background:accumulate"
       id="rect20341"
       width="744.09448"
       height="1052.3622"
       x="0"
       y="0" />
    <polygon
       id="hexfill_2_1-4"
       style="fill:none;stroke:#000000;stroke-width:1;stroke-miterlimit:4;stroke-opacity:1;stroke-dasharray:4, 1;stroke-dashoffset:0"
       points="198.4252,257.76189 99.212598,257.76189 49.606299,171.84126 99.212598,85.920631 198.4252,85.920631 248.0315,171.84126 "
       transform="matrix(0.972,0,0,0.972,-13.691338,40.798511)" />
    <polygon
       id="hexfill_2_2-5"
       style="fill:none;stroke:#000000;stroke-width:1;stroke-miterlimit:4;stroke-opacity:1;stroke-dasharray:4, 1;stroke-dashoffset:0"
       points="198.4252,429.60315 99.212598,429.60315 49.606299,343.68252 99.212598,257.76189 198.4252,257.76189 248.0315,343.68252 "
       transform="matrix(0.972,0,0,0.972,-13.691338,59.357368)" />
    <polygon
       id="hexfill_2_3-5"
       style="fill:none;stroke:#000000;stroke-width:1;stroke-miterlimit:4;stroke-opacity:1;stroke-dasharray:4, 1;stroke-dashoffset:0"
       points="198.4252,601.44441 99.212598,601.44441 49.606299,515.52378 99.212598,429.60315 198.4252,429.60315 248.0315,515.52378 "
       transform="matrix(0.972,0,0,0.972,-13.691338,77.916227)" />
    <polygon
       id="hexfill_2_4-4"
       style="fill:none;stroke:#000000;stroke-width:1;stroke-miterlimit:4;stroke-opacity:1;stroke-dasharray:4, 1;stroke-dashoffset:0"
       points="198.4252,773.28568 99.212598,773.28568 49.606299,687.36505 99.212598,601.44441 198.4252,601.44441 248.0315,687.36505 "
       transform="matrix(0.972,0,0,0.972,-13.691338,96.475076)" />
    <polygon
       id="hexfill_2_5-4"
       style="fill:none;stroke:#000000;stroke-width:1;stroke-miterlimit:4;stroke-opacity:1;stroke-dasharray:4, 1;stroke-dashoffset:0"
       points="198.4252,945.12694 99.212598,945.12694 49.606299,859.20631 99.212598,773.28568 198.4252,773.28568 248.0315,859.20631 "
       transform="matrix(0.972,0,0,0.972,-13.691338,115.03393)" />
    <polygon
       id="hexfill_3_1-3"
       style="fill:none;stroke:#000000;stroke-width:1;stroke-miterlimit:4;stroke-opacity:1;stroke-dasharray:4, 1;stroke-dashoffset:0"
       points="347.24409,171.84126 248.0315,171.84126 198.4252,85.920631 248.0315,0 347.24409,0 396.85039,85.920631 "
       transform="matrix(0.972,0,0,0.972,2.3811024,31.519083)" />
    <polygon
       id="hexfill_3_2-8"
       style="fill:none;stroke:#000000;stroke-width:1;stroke-miterlimit:4;stroke-opacity:1;stroke-dasharray:4, 1;stroke-dashoffset:0"
       points="347.24409,343.68252 248.0315,343.68252 198.4252,257.76189 248.0315,171.84126 347.24409,171.84126 396.85039,257.76189 "
       transform="matrix(0.972,0,0,0.972,2.3811024,50.07794)" />
    <polygon
       id="hexfill_3_3-4"
       style="fill:none;stroke:#000000;stroke-width:1;stroke-miterlimit:4;stroke-opacity:1;stroke-dasharray:4, 1;stroke-dashoffset:0"
       points="347.24409,515.52378 248.0315,515.52378 198.4252,429.60315 248.0315,343.68252 347.24409,343.68252 396.85039,429.60315 "
       transform="matrix(0.972,0,0,0.972,2.3811024,68.636791)" />
    <polygon
       id="hexfill_3_4-5"
       style="fill:none;stroke:#000000;stroke-width:1;stroke-miterlimit:4;stroke-opacity:1;stroke-dasharray:4, 1;stroke-dashoffset:0"
       points="347.24409,687.36505 248.0315,687.36505 198.4252,601.44441 248.0315,515.52378 347.24409,515.52378 396.85039,601.44441 "
       transform="matrix(0.972,0,0,0.972,2.3811024,87.195652)" />
    <polygon
       id="hexfill_3_5-6"
       style="fill:none;stroke:#000000;stroke-width:1;stroke-miterlimit:4;stroke-opacity:1;stroke-dasharray:4, 1;stroke-dashoffset:0"
       points="347.24409,859.20631 248.0315,859.20631 198.4252,773.28568 248.0315,687.36505 347.24409,687.36505 396.85039,773.28568 "
       transform="matrix(0.972,0,0,0.972,2.3811024,105.75451)" />
    <polygon
       id="hexfill_4_1-0"
       style="fill:none;stroke:#000000;stroke-width:1;stroke-miterlimit:4;stroke-opacity:1;stroke-dasharray:4, 1;stroke-dashoffset:0"
       points="496.06299,257.76189 396.85039,257.76189 347.24409,171.84126 396.85039,85.920631 496.06299,85.920631 545.66929,171.84126 "
       transform="matrix(0.972,0,0,0.972,18.453543,40.798511)" />
    <polygon
       id="hexfill_4_2-6"
       style="fill:none;stroke:#000000;stroke-width:1;stroke-miterlimit:4;stroke-opacity:1;stroke-dasharray:4, 1;stroke-dashoffset:0"
       points="496.06299,429.60315 396.85039,429.60315 347.24409,343.68252 396.85039,257.76189 496.06299,257.76189 545.66929,343.68252 "
       transform="matrix(0.972,0,0,0.972,18.453543,59.357368)" />
    <polygon
       id="hexfill_4_3-0"
       style="fill:none;stroke:#000000;stroke-width:1;stroke-miterlimit:4;stroke-opacity:1;stroke-dasharray:4, 1;stroke-dashoffset:0"
       points="496.06299,601.44441 396.85039,601.44441 347.24409,515.52378 396.85039,429.60315 496.06299,429.60315 545.66929,515.52378 "
       transform="matrix(0.972,0,0,0.972,18.453543,77.916227)" />
    <polygon
       id="hexfill_4_4-9"
       style="fill:none;stroke:#000000;stroke-width:1;stroke-miterlimit:4;stroke-opacity:1;stroke-dasharray:4, 1;stroke-dashoffset:0"
       points="496.06299,773.28568 396.85039,773.28568 347.24409,687.36505 396.85039,601.44441 496.06299,601.44441 545.66929,687.36505 "
       transform="matrix(0.972,0,0,0.972,18.453543,96.475076)" />
    <polygon
       id="hexfill_4_5-1"
       style="fill:none;stroke:#000000;stroke-width:1;stroke-miterlimit:4;stroke-opacity:1;stroke-dasharray:4, 1;stroke-dashoffset:0"
       points="496.06299,945.12694 396.85039,945.12694 347.24409,859.20631 396.85039,773.28568 496.06299,773.28568 545.66929,859.20631 "
       transform="matrix(0.972,0,0,0.972,18.453543,115.03393)" />
    <polygon
       id="hexfill_5_1-2"
       style="fill:none;stroke:#000000;stroke-width:1;stroke-miterlimit:4;stroke-opacity:1;stroke-dasharray:4, 1;stroke-dashoffset:0"
       points="644.88189,171.84126 545.66929,171.84126 496.06299,85.920631 545.66929,0 644.88189,0 694.48819,85.920631 "
       transform="matrix(0.972,0,0,0.972,34.525985,31.519083)" />
    <polygon
       id="hexfill_5_2-0"
       style="fill:none;stroke:#000000;stroke-width:1;stroke-miterlimit:4;stroke-opacity:1;stroke-dasharray:4, 1;stroke-dashoffset:0"
       points="644.88189,343.68252 545.66929,343.68252 496.06299,257.76189 545.66929,171.84126 644.88189,171.84126 694.48819,257.76189 "
       transform="matrix(0.972,0,0,0.972,34.525985,50.07794)" />
    <polygon
       id="hexfill_5_3-0"
       style="fill:none;stroke:#000000;stroke-width:1;stroke-miterlimit:4;stroke-opacity:1;stroke-dasharray:4, 1;stroke-dashoffset:0"
       points="644.88189,515.52378 545.66929,515.52378 496.06299,429.60315 545.66929,343.68252 644.88189,343.68252 694.48819,429.60315 "
       transform="matrix(0.972,0,0,0.972,34.525985,68.636791)" />
    <polygon
       id="hexfill_5_4-8"
       style="fill:none;stroke:#000000;stroke-width:1;stroke-miterlimit:4;stroke-opacity:1;stroke-dasharray:4, 1;stroke-dashoffset:0"
       points="644.88189,687.36505 545.66929,687.36505 496.06299,601.44441 545.66929,515.52378 644.88189,515.52378 694.48819,601.44441 "
       transform="matrix(0.972,0,0,0.972,34.525985,87.195652)" />
    <polygon
       id="hexfill_5_5-4"
       style="fill:none;stroke:#000000;stroke-width:1;stroke-miterlimit:4;stroke-opacity:1;stroke-dasharray:4, 1;stroke-dashoffset:0"
       points="644.88189,859.20631 545.66929,859.20631 496.06299,773.28568 545.66929,687.36505 644.88189,687.36505 694.48819,773.28568 "
       transform="matrix(0.972,0,0,0.972,34.525985,105.75451)" />
    <g
       id="g19587"
       transform="translate(29.832732,-5.90392)">
      <path
         inkscape:connector-curvature="0"
         id="path19583"
         d="m 74.2658,64.785059 53.7242,0"
         style="fill:none;stroke:#000000;stroke-width:1px;stroke-linecap:butt;stroke-linejoin:miter;stroke-opacity:1" />
      <path
         style="fill:none;stroke:#000000;stroke-width:1px;stroke-linecap:butt;stroke-linejoin:miter;stroke-opacity:1"
         d="m 101.1279,37.922959 0,53.7242"
         id="path19585"
         inkscape:connector-curvature="0" />
    </g>
    <g
       id="g19591"
       transform="translate(512.00596,941.55012)">
      <path
         style="fill:none;stroke:#000000;stroke-width:1px;stroke-linecap:butt;stroke-linejoin:miter;stroke-opacity:1"
         d="m 74.2658,64.785059 53.7242,0"
         id="path19593"
         inkscape:connector-curvature="0" />
      <path
         inkscape:connector-curvature="0"
         id="path19595"
         d="m 101.1279,37.922959 0,53.7242"
         style="fill:none;stroke:#000000;stroke-width:1px;stroke-linecap:butt;stroke-linejoin:miter;stroke-opacity:1" />
    </g>
    <g
       id="g19597"
       transform="translate(190.55714,941.55012)">
      <path
         style="fill:none;stroke:#000000;stroke-width:1px;stroke-linecap:butt;stroke-linejoin:miter;stroke-opacity:1"
         d="m 74.2658,64.785059 53.7242,0"
         id="path19599"
         inkscape:connector-curvature="0" />
      <path
         inkscape:connector-curvature="0"
         id="path19601"
         d="m 101.1279,37.922959 0,53.7242"
         style="fill:none;stroke:#000000;stroke-width:1px;stroke-linecap:butt;stroke-linejoin:miter;stroke-opacity:1" />
    </g>
    <g
       transform="translate(351.28155,-5.90392)"
       id="g19603">
      <path
         inkscape:connector-curvature="0"
         id="path19605"
         d="m 74.2658,64.785059 53.7242,0"
         style="fill:none;stroke:#000000;stroke-width:1px;stroke-linecap:butt;stroke-linejoin:miter;stroke-opacity:1" />
      <path
         style="fill:none;stroke:#000000;stroke-width:1px;stroke-linecap:butt;stroke-linejoin:miter;stroke-opacity:1"
         d="m 101.1279,37.922959 0,53.7242"
         id="path19607"
         inkscape:connector-curvature="0" />
    </g>
  </g>
</svg>
