<?xml version="1.0" encoding="UTF-8" standalone="no"?>
<!-- Created with Inkscape (http://www.inkscape.org/) -->

<svg
   xmlns:dc="http://purl.org/dc/elements/1.1/"
   xmlns:cc="http://creativecommons.org/ns#"
   xmlns:rdf="http://www.w3.org/1999/02/22-rdf-syntax-ns#"
   xmlns:svg="http://www.w3.org/2000/svg"
   xmlns="http://www.w3.org/2000/svg"
   xmlns:sodipodi="http://sodipodi.sourceforge.net/DTD/sodipodi-0.dtd"
   xmlns:inkscape="http://www.inkscape.org/namespaces/inkscape"
   width="210mm"
   height="297mm"
   id="svg19645"
   version="1.1"
   inkscape:version="0.48.3.1 r9886"
   sodipodi:docname="icons.svg">
  <defs
     id="defs19647" />
  <sodipodi:namedview
     id="base"
     pagecolor="#ffffff"
     bordercolor="#666666"
     borderopacity="1.0"
     inkscape:pageopacity="0.0"
     inkscape:pageshadow="2"
     inkscape:zoom="1.9064151"
     inkscape:cx="332.61598"
     inkscape:cy="884.33861"
     inkscape:document-units="px"
     inkscape:current-layer="layer1"
     showgrid="false"
     inkscape:window-width="1600"
     inkscape:window-height="849"
     inkscape:window-x="0"
     inkscape:window-y="25"
     inkscape:window-maximized="1" />
  <metadata
     id="metadata19650">
    <rdf:RDF>
      <cc:Work
         rdf:about="">
        <dc:format>image/svg+xml</dc:format>
        <dc:type
           rdf:resource="http://purl.org/dc/dcmitype/StillImage" />
        <dc:title></dc:title>
      </cc:Work>
    </rdf:RDF>
  </metadata>
  <g
     inkscape:label="Calque 1"
     inkscape:groupmode="layer"
     id="layer1">
    <path
       style="fill:#000000"
       inkscape:connector-curvature="0"
       d="m 57.484927,49.392396 c 0,-3.403 2.718,-6.169 6.101,-6.25 0.691,-1.996 2.586,-3.431 4.818,-3.431 0.836,0 1.626,0.203 2.323,0.561 0.646,-1.94 2.476,-3.34 4.632,-3.34 2.697,0 4.882,2.186 4.882,4.881 0,2.697 -2.185,4.881 -4.882,4.881 -0.737,0 -1.437,-0.164 -2.064,-0.458 -0.187,0.638 -0.493,1.223 -0.895,1.729 0.542,0.217 1.048,0.506 1.504,0.856 0.636,-0.382 1.377,-0.605 2.173,-0.605 2.337,0 4.23,1.894 4.23,4.231 0,2.335 -1.894,4.23 -4.23,4.23 -0.146,0 -0.29,-0.007 -0.432,-0.023 -0.51,0.98 -1.268,1.808 -2.194,2.4 0.032,0.255 0.05,0.515 0.05,0.778 0,2.54 -1.513,4.724 -3.688,5.704 0.088,0.214 0.157,0.437 0.213,0.667 0.368,-0.098 0.753,-0.154 1.15,-0.154 2.506,0 4.538,2.032 4.538,4.537 0,2.507005 -2.032,4.538005 -4.538,4.538005 -0.716,0 -1.391,-0.171 -1.994,-0.465 -0.01,1.964 -1.604,3.555 -3.572,3.555 -1.973,0 -3.573,-1.6 -3.573,-3.572 0,-1.369 0.769,-2.554 1.896,-3.154 -1.679,-0.669005 -2.868,-2.305005 -2.868,-4.223005 0,-1.317 0.564,-2.5 1.46,-3.33 -0.954,-1.098 -1.534,-2.532 -1.534,-4.102 0,-1.654 0.644,-3.158 1.694,-4.277 -2.952,-0.501 -5.2,-3.069 -5.2,-6.164 z m 26.966,-8.504 c 1.108,0 2.005,-0.897 2.005,-2.005 0,-1.108 -0.896,-2.005 -2.005,-2.005 -1.106,0 -2.005,0.897 -2.005,2.005 0,1.108 0.899,2.005 2.005,2.005 z M 118.55993,136.4164 81.954927,95.474401 c -1.759,-1.993 -2.396,-2.57 -3.587,-2.57 -1.191,0 -2.382,1.953 -3.544,1.953 -1.438,0 -2.573,-1.953 -3.765,-1.953 -0.79,0 -1.579,0.852 -2.36,1.431 -5.197,5.489 -7.861,10.323999 -0.187,15.387999 11.276,7.442 6.434,16.537 -0.472,26.694 h 50.520003 z m -60.299003,-25.729 c -6.171,-5.701 2.982,-12.904999 7.484,-16.629999 0,0 0.018,-0.004 0.021,-0.005 -0.695,-0.539 -1.347,-1.149 -2.015,-1.149 -1.191,0 -2.382,1.953 -3.544,1.953 -1.437,0 -2.573,-1.953 -3.764,-1.953 -1.191,0 -2.381,1.099 -3.545,2.57 l -34.315,40.942999 h 24.43 c 25.028,-16.589 22.175,-19.327 15.248,-25.729 z m 11.751,-27.185999 c -1.58,-0.38 -3.172,0.981 -2.76,2.817 0.422,1.889 0.932,2.669 0.991,4.532 0.9,-1.633 1.709,-2.093 2.946,-3.584 1.202,-1.447 0.405,-3.383 -1.177,-3.765 z m 10.806,-11.11 c -0.293,1.481 -0.174,2.198 -0.718,3.544 1.155,-0.881 1.878,-0.955 3.229,-1.629 1.312,-0.654 1.354,-2.288 0.346,-3.057005 -1.009,-0.769 -2.572,-0.298 -2.857,1.142005 z m -4.651,7.236 c 0.945,-0.796 0.655,-2.144 -0.324,-2.574 -0.979,-0.429 -2.167,0.267 -2.114,1.501 0.053,1.273 0.292,1.836 0.113,3.049 0.773,-0.951 1.349,-1.155 2.325,-1.976 z m -21.596,-9.035005 c 1.536,1.180005 2.427,1.450005 3.667,2.842005 -0.355,-1.83 -0.029,-2.702005 -0.037,-4.638005 -0.006,-1.882 -1.858,-2.858 -3.316,-2.137 -1.459,0.722 -1.806,2.788 -0.314,3.933 z m 7.327,11.156005 c -1.175,0.498 -1.541,2.1 -0.425,3.065 1.15,0.995 1.835,1.247 2.743,2.393 -0.195,-1.45 0.1,-2.117 0.182,-3.636 0.082,-1.473 -1.325,-2.321 -2.5,-1.822 z m -1.821,-2.942 c 0.207,-0.996 -0.663,-1.719 -1.515,-1.502 -0.851,0.219 -1.267,1.271 -0.607,2.044 0.681,0.796 1.122,1.04 1.621,1.916 0.016,-1.008 0.287,-1.432 0.501,-2.458 z m -1.152,12.688 c 0.987,0.351 1.49,0.342 2.359,0.853 -0.488,-0.883 -0.465,-1.387 -0.791,-2.381 -0.316,-0.966 -1.431,-1.16 -2.062,-0.546 -0.629,0.613 -0.464,1.733 0.494,2.074 z m 19.829,-28.169005 c -0.09,1.935 0.197,2.822 -0.237,4.634 1.3,-1.338 2.2,-1.569 3.786,-2.681 1.54,-1.08 1.282,-3.158 -0.143,-3.941 -1.425,-0.784 -3.318,0.111 -3.406,1.988 z m -27.037,14.238005 c 1.246,0.265 1.852,0.174 2.981,0.65 -0.729,-0.986 -0.782,-1.597 -1.334,-2.744 -0.536,-1.114 -1.911,-1.169 -2.572,-0.328 -0.663,0.841 -0.285,2.165 0.925,2.422 z"
       id="path3" />
    <path
       inkscape:connector-curvature="0"
       d="m 247.14285,122.46745 h -100 l 4.961,-8.601 15.443,-26.763999 c 2.734,-4.727 7.194,-4.727 9.922,0 0,0 3.587,6.211 4.017,6.94 2.051,-3.555 13.001,-22.526 13.001,-22.526 2.741,-4.727001 7.194,-4.727001 9.929,0 l 21.744,37.681999 c 1.12,-1.946 2.227,-3.86 3.08,-5.338 1.973,-3.418 5.188,-3.418 7.168,0 1.973,3.411 5.195,8.99 7.174,12.402 l 3.561,6.205 z"
       id="path3-7" />
    <g
       transform="translate(283.40604,62.479761)"
       id="g2994">
      <path
         inkscape:connector-curvature="0"
         id="path3-3"
         d="M 6.77,61.333 C 11.474,52.78 26.585,46.448 44.702,46.122 44.178,46.113 43.655,46.103 43.126,46.103 22.967,46.103 5.988,52.547 0.8,61.333 h 5.97 z" />
      <path
         inkscape:connector-curvature="0"
         id="path5"
         d="m 21.151,61.333 c 3.812,-8.446 15.953,-14.73 30.577,-15.201 -0.652,-0.019 -1.307,-0.029 -1.965,-0.029 -17.117,0 -31.532,6.444 -35.937,15.23 h 7.325 z" />
      <path
         inkscape:connector-curvature="0"
         id="path7"
         d="M 37.17,61.333 C 40.018,53.007 48.988,46.784 59.854,46.16 59.166,46.126 58.479,46.102 57.78,46.102 c -13.439,0 -24.758,6.444 -28.216,15.23 h 7.606 z" />
      <path
         inkscape:connector-curvature="0"
         id="path9"
         d="m 53.716,61.333 c 1.846,-8.079 7.549,-14.176 14.521,-15.102 -0.756,-0.081 -1.521,-0.128 -2.299,-0.128 -9.697,0 -17.851,6.448 -20.349,15.23 h 8.127 z" />
      <path
         inkscape:connector-curvature="0"
         id="path11"
         d="m 99.2,61.333 c -1.533,-2.318 -3.721,-4.479 -6.201,-6.382 v -4.247 c 1.338,-0.167 2.389,-1.686 2.389,-3.555 0,-1.981 -1.178,-3.587 -2.627,-3.587 -1.451,0 -2.627,1.606 -2.627,3.587 0,1.758 0.928,3.215 2.148,3.522 v 3.746 c -1.83,-1.341 -3.789,-2.543 -5.744,-3.572 v -4.779 c 1.549,-0.187 2.766,-1.883 2.766,-3.973 0,-2.214 -1.844,-4.009 -3.041,-4.009 -1.199,0 -3.043,1.795 -3.043,4.009 0,1.965 1.074,3.592 2.49,3.936 v 4.39 c -4.357,-2.188 -8.57,-3.486 -11.062,-3.486 -5.588,0 -10.316,6.06 -11.887,14.401 H 99.2 z" />
    </g>
    <text
       xml:space="preserve"
       style="font-size:6.57988071px;font-style:normal;font-variant:normal;font-weight:normal;font-stretch:semi-condensed;text-align:center;line-height:125%;letter-spacing:0px;word-spacing:0px;writing-mode:lr-tb;text-anchor:middle;fill:#000000;fill-opacity:1;stroke:none;font-family:DejaVu Sans;-inkscape-font-specification:DejaVu Sans Semi-Condensed"
       x="336.10959"
       y="139.69267"
       id="text19707"
       sodipodi:linespacing="125%"><tspan
         sodipodi:role="line"
         id="tspan19709"
         x="337.04773"
         y="139.69267">Rural designed by Evan Caughey </tspan><tspan
         sodipodi:role="line"
         x="336.10959"
         y="147.91753"
         id="tspan19711">from The Noun Project</tspan></text>
    <text
       sodipodi:linespacing="125%"
       id="text19713"
       y="153.85538"
       x="65.444511"
       style="font-size:6.57988071px;font-style:normal;font-variant:normal;font-weight:normal;font-stretch:semi-condensed;text-align:center;line-height:125%;letter-spacing:0px;word-spacing:0px;writing-mode:lr-tb;text-anchor:middle;fill:#000000;fill-opacity:1;stroke:none;font-family:DejaVu Sans;-inkscape-font-specification:DejaVu Sans Semi-Condensed"
       xml:space="preserve"><tspan
         id="tspan19717"
         y="153.85538"
         x="65.444511"
         sodipodi:role="line">Volcano designed by Joris Hoogendoorn</tspan><tspan
         y="162.08023"
         x="65.444511"
         sodipodi:role="line"
         id="tspan19721">from The Noun Project</tspan></text>
    <g
       transform="translate(424.18844,30.211885)"
       id="g3762">
      <path
         inkscape:connector-curvature="0"
         id="path3-78"
         d="m 16.84375,37.03125 c -1.805127,0.201387 -3.820125,1.5035 -5.71875,5.1875 C 8.3370001,47.62275 3.2759999,50.8135 0,52.3125 l 0,16.09375 c 3.2759999,-1.499 8.3370001,-4.6585 11.125,-10.0625 5.063,-9.824 11.09375,-2.78125 11.09375,-2.78125 -4.795,0.425 -3.64025,5.6755 -2.78125,8.3125 1.026,3.155 3.8145,5.1375 5.5625,5.5625 l 2.78125,0 c 1.772,-0.351 4.48675,-3.60875 8.34375,-11.09375 5.068,-9.824 11.09375,-2.78125 11.09375,-2.78125 -4.785,0.425 -3.65025,5.6755 -2.78125,8.3125 1.026,3.155 3.7995,5.1375 5.5625,5.5625 l 2.78125,0 c 1.777,-0.351 4.48675,-3.60875 8.34375,-11.09375 5.073,-9.824 11.09375,-2.78125 11.09375,-2.78125 -4.785,0.425 -3.65025,5.6755 -2.78125,8.3125 1.026,3.155 3.8045,5.1375 5.5625,5.5625 l 2.78125,0 c 1.763,-0.351 4.50575,-3.60875 8.34375,-11.09375 5.078,-9.824 11.09375,-2.78125 11.09375,-2.78125 -4.785,0.425 -3.65025,5.70675 -2.78125,8.34375 0.674,2.09 3.3315,3.64175 5.5625,4.59375 l 0,-16.125 c -2.231,-0.952 -4.8885,-2.50375 -5.5625,-4.59375 -0.869,-2.637 -2.00375,-7.91875 2.78125,-8.34375 0,0 -6.01575,-7.0115 -11.09375,2.8125 -3.838,7.485 -6.58075,10.74275 -8.34375,11.09375 l -2.78125,0 c -1.758,-0.425 -4.5365,-2.4075 -5.5625,-5.5625 -0.869,-2.637 -2.00375,-7.91875 2.78125,-8.34375 0,0 -6.02075,-7.04275 -11.09375,2.78125 -3.857,7.485 -6.56675,10.774 -8.34375,11.125 l -2.78125,0 c -1.763,-0.425 -4.5365,-2.4075 -5.5625,-5.5625 -0.869,-2.637 -2.00375,-7.91875 2.78125,-8.34375 0,0 -6.02575,-7.04275 -11.09375,2.78125 -3.857,7.485 -6.57175,10.774 -8.34375,11.125 l -2.78125,0 c -1.748,-0.425 -4.5365,-2.4075 -5.5625,-5.5625 -0.859,-2.637 -2.01375,-7.91875 2.78125,-8.34375 0,0 -2.366455,-2.741895 -5.375,-2.40625 z" />
      <path
         inkscape:connector-curvature="0"
         id="path5-0"
         d="m 19.448,69.448 c 0,0 -6.05,-7.046 -11.113,2.778 C 6.26,76.25 2.93,79.023 0,80.811 V 91.67 h 100 v -8.335 c -1.763,-0.425 -7.31,-2.397 -8.33,-5.552 -0.869,-2.646 -2.007,-7.91 2.778,-8.335 0,0 -6.03,-7.046 -11.113,2.778 -3.838,7.49 -6.567,10.757 -8.33,11.108 h -2.778 c -1.758,-0.425 -4.531,-2.397 -5.557,-5.552 -0.869,-2.646 -2.007,-7.91 2.778,-8.335 0,0 -6.04,-7.046 -11.113,2.778 -3.857,7.49 -6.558,10.757 -8.33,11.108 h -2.778 c -1.763,-0.425 -4.531,-2.397 -5.557,-5.552 -0.864,-2.646 -2.007,-7.91 2.778,-8.335 0,0 -6.045,-7.046 -11.108,2.778 -3.862,7.49 -6.558,10.757 -8.34,11.108 H 22.227 C 20.474,82.907 17.696,80.935 16.67,77.78 15.811,75.137 14.653,69.873 19.448,69.448 z" />
    </g>
    <path
       inkscape:connector-curvature="0"
       d="m 656.89825,127.97601 c -73.462,-3.008 -53.799,-67.417 -29.121,-61.118 -2.563,1.533 -4.229,6.895 -2.627,10.498 1.724,3.867 7.275,6.069 10.498,5.249 7.671,-1.953 8.003,-12.715 5.254,-18.374 -2.852,-5.864 -10.425,-13.125 -23.628,-13.125 -31.89,0 -52.188,17.734 -60.376,45.702997 v 41.172003 h 100 v -10.005 z"
       id="path3-5" />
    <g
       transform="translate(23.782807,205.3267)"
       id="g3">
      <polygon
         points="51.586,22.479 50.626,25.722 55.962,27.299 60.721,32.376 63.188,30.062 57.802,24.317 "
         id="polygon5" />
      <polygon
         points="47.606,70.956 48.085,63.051 55.813,66.167 53.006,55.233 50.385,55.906 51.862,61.656 45.612,59.136 45.189,66.11 38.464,61.656 36.97,63.912 "
         id="polygon7" />
      <path
         inkscape:connector-curvature="0"
         d="m 94.958,58.866 0.956,-0.957 -1.661,-1.661 0.153,-0.201 -1.706,-5.12 -6.86,-8.022 -5.254,-7.154 -12.226,-15.688 -2.034,-1.184 1.07,-0.62 -0.678,-1.171 -1.739,1.007 -0.555,-0.323 0.688,-0.397 -0.678,-1.171 -1.356,0.785 -1.71,-0.995 L 50.245,15.76 43.908,14.929 29.431,6.047 28.811,5.403 23.543,2.962 19.484,6.006 18.48,8.014 l -0.907,0.214 -3.649,5.984 1.222,7.636 1.224,0.364 c 0.515,0.153 0.973,0.289 1.38,0.408 l -0.071,3.053 2.604,-2.318 c 0.76,0.956 2.567,3.409 4.177,5.646 l 4.868,9.321 -0.476,1.807 -1.348,-0.168 -8.082,-5.636 -1.587,-1.333 0.04,-1.704 -1.004,0.894 -3.491,-2.932 -6.447,-0.68 -2.491,6.477 1.027,3.668 -0.255,0.169 0.749,1.126 0.334,-0.223 10.843,11.47 0.791,7.812 -11.4,37.424 14.984,-12.183 3.538,10.058 10.58,-10.14 5.417,10.063 8.655,-10.101 7.306,10.08 6.754,-10.074 9.213,10.11 L 77.846,84.245 90.892,96.129 88.057,78.372 84.439,59 h 7.43 l 0.834,0.914 0.956,-0.917 -0.877,-0.858 0.639,-0.82 1.537,1.547 z M 82.018,55 66.46,49.856 l -1.285,3.875 15.065,5.042 3.813,20.343 0.993,6.198 -8.486,-7.729 -4.623,9.555 -8.661,-9.503 -6.396,9.541 -6.91,-9.534 -8.153,9.514 -5.141,-9.552 -9.886,9.475 -3.362,-9.557 -9.141,7.432 7.763,-25.481 -1.013,-9.999 -11.852,-12.54 -0.473,-1.688 0.891,-2.316 2.119,0.223 5.162,4.335 9.123,6.372 5.867,0.733 1.779,-6.76 -5.729,-10.97 -0.084,-0.117 C 27.828,26.731 26.664,25.113 25.487,23.516 22.983,20.117 22.563,19.548 21.579,19.484 21.173,19.383 19.993,19.046 18.75,18.682 l -0.582,-3.635 1.987,-3.259 4.345,-1.024 3.101,1.329 1.612,-1.419 13.309,8.166 7.416,0.973 10.296,0.217 5.407,3.146 11.691,15 5.28,7.191 6.487,7.544 0.714,2.089 h -7.795 z"
         id="path9-0" />
      <circle
         d="m 31.63,21.412001 c 0,0.560569 -0.454431,1.015 -1.015,1.015 -0.560569,0 -1.015,-0.454431 -1.015,-1.015 0,-0.560569 0.454431,-1.015 1.015,-1.015 0.560569,0 1.015,0.454431 1.015,1.015 z"
         sodipodi:ry="1.015"
         sodipodi:rx="1.015"
         sodipodi:cy="21.412001"
         sodipodi:cx="30.615"
         cx="30.615"
         cy="21.412001"
         r="1.015"
         id="circle11" />
      <circle
         d="m 35.012002,25.018999 c 0,0.560569 -0.454431,1.015 -1.015,1.015 -0.560569,0 -1.015,-0.454431 -1.015,-1.015 0,-0.560569 0.454431,-1.015 1.015,-1.015 0.560569,0 1.015,0.454431 1.015,1.015 z"
         sodipodi:ry="1.015"
         sodipodi:rx="1.015"
         sodipodi:cy="25.018999"
         sodipodi:cx="33.997002"
         cx="33.997002"
         cy="25.018999"
         r="1.015"
         id="circle13" />
      <circle
         d="m 33.321,29.302999 c 0,0.56057 -0.454431,1.015 -1.015,1.015 -0.560569,0 -1.015,-0.45443 -1.015,-1.015 0,-0.560569 0.454431,-1.014999 1.015,-1.014999 0.560569,0 1.015,0.45443 1.015,1.014999 z"
         sodipodi:ry="1.015"
         sodipodi:rx="1.015"
         sodipodi:cy="29.302999"
         sodipodi:cx="32.306"
         cx="32.306"
         cy="29.302999"
         r="1.015"
         id="circle15" />
    </g>
    <text
       xml:space="preserve"
       style="font-size:6.57988071px;font-style:normal;font-variant:normal;font-weight:normal;font-stretch:semi-condensed;text-align:center;line-height:125%;letter-spacing:0px;word-spacing:0px;writing-mode:lr-tb;text-anchor:middle;fill:#000000;fill-opacity:1;stroke:none;font-family:DejaVu Sans;-inkscape-font-specification:DejaVu Sans Semi-Condensed"
       x="71.739052"
       y="312.26788"
       id="text19849"
       sodipodi:linespacing="125%"><tspan
         id="tspan19853"
         sodipodi:role="line"
         x="71.739052"
         y="312.26788">Wolf designed by Madebyelvis</tspan><tspan
         sodipodi:role="line"
         x="71.739052"
         y="320.49274"
         id="tspan19857">from The Noun Project</tspan></text>
    <path
       inkscape:connector-curvature="0"
       d="m 242.39914,270.82632 h 17.2733 l -9.22725,-9.86448 h 6.81943 l -9.88801,-9.55864 h 5.48167 l -10.07988,-9.7436 h 5.28981 l -14.11872,-13.6478 -6.81659,6.58905 -10.37679,-10.03121 -8.7632,8.46953 -6.8819,-6.65312 -6.56875,6.3497 -8.44883,-8.16652 -10.37761,10.03121 -6.8166,-6.58903 -14.11871,13.64778 h 5.29062 l -10.07947,9.7436 h 5.48167 l -9.88842,9.55864 h 6.82025 l -9.22725,9.86448 h 17.27289 l -5.32551,5.693 h 18.55995 l -6.47465,6.92206 h 67.80165 l -6.47505,-6.92206 h 19.18745 l -5.3255,-5.69259 z m -75.93409,-6.42962 -3.73747,3.99585 h -13.94063 l 9.22724,-9.86449 h -6.40975 l 9.88842,-9.55863 h -5.48208 l 10.07947,-9.74402 h -5.2894 l 8.09919,-7.82904 5.06549,4.89635 -4.53331,4.382 h 6.5002 l -12.38709,11.97498 h 6.73669 l -12.15224,11.747 h 8.33527 z m 62.93815,16.6109 h -56.58356 l 12.51972,-13.38452 h -8.7705 l 13.41779,-12.96999 h -7.43883 l 13.67739,-13.22147 h -7.17678 l 12.06299,-11.66141 5.1312,4.96044 0,0 6.93219,6.70097 h -7.17678 l 13.67739,13.22147 H 212.237 l 13.41738,12.96999 h -8.77091 l 8.32108,8.89624 0,0 4.19865,4.48828 z m 6.98208,-16.6109 h 8.33446 l -12.15223,-11.747 h 6.73627 l -12.38586,-11.97498 h 6.49938 l -4.5333,-4.382 5.06549,-4.89635 8.09919,7.82904 h -5.2898 l 10.07986,9.74402 h -5.48165 l 9.88799,9.55863 h -6.40933 l 9.22725,9.86449 h -13.94025 l -3.73747,-3.99585 z"
       id="path3-9" />
    <text
       sodipodi:linespacing="125%"
       id="text19866"
       y="297.05609"
       x="200.25252"
       style="font-size:6.57988071px;font-style:normal;font-variant:normal;font-weight:normal;font-stretch:semi-condensed;text-align:center;line-height:125%;letter-spacing:0px;word-spacing:0px;writing-mode:lr-tb;text-anchor:middle;fill:#000000;fill-opacity:1;stroke:none;font-family:DejaVu Sans;-inkscape-font-specification:DejaVu Sans Semi-Condensed"
       xml:space="preserve"><tspan
         id="tspan19870"
         y="297.05609"
         x="200.25252"
         sodipodi:role="line">Forest designed by Nicholas Burroughs</tspan><tspan
         y="305.28094"
         x="200.25252"
         sodipodi:role="line"
         id="tspan19874">from The Noun Project</tspan></text>
    <g
       transform="translate(286.23317,221.22714)"
       id="g3002">
      <polygon
         id="polygon3"
         points="76.509,69.275 61.226,72.176 36.27,58.602 45.347,47.283 65.757,54.07 " />
      <path
         inkscape:connector-curvature="0"
         id="path5-5"
         d="m 50.088,42.755 c -0.664,-6.207 -3.096,-11.126 -3.521,-17.12 0.049,-2.053 0.029,-3.557 -0.249,-5.505 -0.029,-1.116 -0.103,-2.117 -0.103,-3.262 0,-2.183 -0.239,-4.365 -0.239,-6.326 0.01,-2.776 0.439,-4.912 2.134,-6.404 1.011,-0.886 1.807,-1.133 2.485,-1.145 1.777,-0.188 4.155,2.598 5.342,5.713 -1.045,0.85 -1.631,1.614 -1.631,1.614 -4.043,5.662 11.206,21.853 17.266,13.14 C 74.165,19.732 70.82,9.014 64.687,6.893 62.285,6.058 60.185,6.419 58.5,7.149 57.065,3.638 54.57,0.191 50.596,0 49.077,-0.015 47.51,0.64 46.123,1.897 c -2.671,2.339 -3.154,5.632 -3.145,8.645 0,1.44 0.088,2.839 0.156,4.202 -0.625,-0.547 -1.333,-1.086 -2.212,-1.621 -1.846,-1.167 -3.438,-1.814 -5,-1.824 -3.965,0.161 -5.103,3.958 -5.215,8.11 -4.214,3.447 -4.99,17.847 2.48,15.359 4.048,-1.357 5.801,-6.58 5.4,-10.146 0,0 -0.308,-5.029 -4.854,-5.801 0.225,-3.398 1.143,-4.521 2.188,-4.521 0.645,-0.015 1.807,0.339 3.369,1.348 2.827,1.96 3.687,2.668 4.009,4.482 0.044,1.716 0.259,5.752 0.264,5.935 h 0.029 c 0.43,6.025 1.309,10.618 1.968,16.69 H 42.806 L 47.611,45.023 68.026,51.81 83.905,49.549 100,44.451 V 42.757 L 50.088,42.755 z M 59.209,8.589 c 0,0 7.324,4.973 9.395,13.896 L 57.051,9.903 59.209,8.589 z M 31.045,32.251 c -1.035,-3.662 0,-10.706 0,-10.706 L 33.11,20.7 31.045,32.251 z" />
      <polygon
         id="polygon7-6"
         points="13.198,51.121 22.773,63.143 31.953,57.615 41.523,45.774 38.535,42.757 17.397,42.757 " />
      <polygon
         id="polygon9"
         points="33.486,61.238 17.217,72.312 19.385,74.998 56.807,74.998 56.685,74.441 " />
      <polygon
         id="polygon11"
         points="0,55.516 10.435,49.935 13.584,42.757 0,42.757 " />
      <polygon
         id="polygon13"
         points="71.05,54.539 81.152,69.173 100,73.592 100,56.854 86.426,52.479 " />
      <polygon
         id="polygon15"
         points="89.409,50.154 100,53.206 100,47.283 " />
      <polygon
         id="polygon17"
         points="10.679,54.021 0,59.114 0,74.998 7.842,74.998 19.458,65.467 " />
      <polygon
         id="polygon19"
         points="79.37,72.176 66.631,74.998 91.05,74.998 " />
    </g>
    <g
       transform="translate(418.74255,222.88049)"
       id="g4007">
      <g
         transform="matrix(0.31646813,0,0,0.31646813,69.759942,13.322172)"
         id="g3808">
        <path
           id="path3035"
           style="fill:#000000;fill-opacity:1;stroke:#000000;stroke-width:6;stroke-linecap:butt;stroke-linejoin:round;stroke-miterlimit:4;stroke-opacity:1;stroke-dasharray:none"
           d="M -28.600933,0 C -15.455545,-4.4483111 7.8705684,1.1274024 18.7495,8.8980682 30.600154,17.362821 40.372563,27.337862 53.070619,34.956695 65.446257,42.382078 79.103105,47.337362 91.840772,53.706196 L 7.6269154,53.388407 C 26.966445,35.965699 -7.4230026,-7.9448358 -28.918721,0.3177881"
           inkscape:connector-curvature="0"
           sodipodi:nodetypes="cssccc" />
        <path
           sodipodi:nodetypes="cc"
           inkscape:connector-curvature="0"
           d="M -74.494842,35.401301 C -58.91795,26.968166 -40.226189,13.950305 -28.600933,0"
           style="fill:none;stroke:#000000;stroke-width:6;stroke-linecap:round;stroke-linejoin:round;stroke-miterlimit:4;stroke-opacity:1;stroke-dasharray:none"
           id="path3806" />
      </g>
      <g
         id="g4003">
        <path
           sodipodi:nodetypes="cssccc"
           inkscape:connector-curvature="0"
           d="m 35.484105,23.682257 c 4.160097,-1.407748 11.542068,0.356787 14.984903,2.815955 3.750354,2.678825 6.84301,5.835607 10.861541,8.246725 3.916495,2.349897 8.238452,3.918087 12.269517,5.93362 l -26.651001,-0.10057 c 6.120344,-5.513732 -4.76282,-19.410017 -11.56553,-16.79516"
           style="fill:#000000;fill-opacity:1;stroke:#000000;stroke-width:1.89880884;stroke-linecap:butt;stroke-linejoin:round;stroke-miterlimit:4;stroke-opacity:1;stroke-dasharray:none"
           id="path3820" />
        <path
           id="path3822"
           style="fill:none;stroke:#000000;stroke-width:1.89880884;stroke-linecap:round;stroke-linejoin:round;stroke-miterlimit:4;stroke-opacity:1;stroke-dasharray:none"
           d="M 6.8217079,40.376847 C 17.351737,37.167868 28.126059,32.511911 35.484105,23.682257"
           inkscape:connector-curvature="0"
           sodipodi:nodetypes="cc" />
      </g>
      <g
         id="g3868"
         transform="matrix(0.31646813,0,0,0.31646813,53.206329,48.456372)">
        <path
           id="path3870"
           style="fill:#000000;fill-opacity:1;stroke:#000000;stroke-width:6;stroke-linecap:butt;stroke-linejoin:round;stroke-miterlimit:4;stroke-opacity:1;stroke-dasharray:none"
           d="M -9.3859839,-3.9141563 C 3.7594041,-8.3624674 27.085517,-2.7867539 37.964449,4.9839119 49.815103,13.448665 59.587512,23.423706 72.285568,31.042539 84.661206,38.467922 98.318054,43.423206 111.05572,49.79204 L 26.841864,49.474251 C 46.181394,32.051543 11.791946,-11.858992 -9.7037719,-3.5963682"
           inkscape:connector-curvature="0"
           sodipodi:nodetypes="cssccc" />
        <path
           sodipodi:nodetypes="cc"
           inkscape:connector-curvature="0"
           d="M -99.955601,48.838675 C -66.682015,38.698699 -32.636495,23.986453 -9.3859839,-3.9141563"
           style="fill:none;stroke:#000000;stroke-width:6;stroke-linecap:round;stroke-linejoin:round;stroke-miterlimit:4;stroke-opacity:1;stroke-dasharray:none"
           id="path3872" />
      </g>
      <path
         style="stroke:#000000;stroke-opacity:1"
         id="path3-1"
         d="m 24.104035,20.755276 c -0.780789,0 -1.413633,0.63249 -1.413633,1.413635 v 4.94772 H 19.863487 V 13.989722 h -0.0053 c -0.02761,-0.952452 -0.803443,-1.716607 -1.762266,-1.716607 -0.958822,0 -1.734657,0.764155 -1.762264,1.71696 h -0.0047 v 0.04672 c 0,0.0011 -3.53e-4,0.0021 -3.53e-4,0.0036 0,0.0014 3.53e-4,0.002 3.53e-4,0.0035 v 16.25431 h -2.827979 v -4.948429 c 0,-0.781145 -0.633198,-1.413634 -1.413635,-1.413634 -0.780791,0 -1.413634,0.632843 -1.413634,1.413634 v 6.361709 c 0,0.781144 0.632137,1.412926 1.411865,1.413635 7.08e-4,0 0.0011,0 0.0018,0 7.08e-4,0 0.0011,0 0.0018,0 h 4.239847 v 14.542003 h 3.534441 V 29.944254 c 0,0 4.241611,0 4.242318,0 0.77973,-7.08e-4 1.411865,-0.633198 1.411865,-1.413634 v -6.361709 c 0,-0.781145 -0.632844,-1.413635 -1.413635,-1.413635 z"
         inkscape:connector-curvature="0" />
    </g>
    <text
       xml:space="preserve"
       style="font-size:6.57988071px;font-style:normal;font-variant:normal;font-weight:normal;font-stretch:semi-condensed;text-align:center;line-height:125%;letter-spacing:0px;word-spacing:0px;writing-mode:lr-tb;text-anchor:middle;fill:#000000;fill-opacity:1;stroke:none;font-family:DejaVu Sans;-inkscape-font-specification:DejaVu Sans Semi-Condensed"
       x="470.9176"
       y="302.30154"
       id="text19966"
       sodipodi:linespacing="125%"><tspan
         id="tspan19970"
         sodipodi:role="line"
         x="470.9176"
         y="302.30154">Cactus  from The Noun Project</tspan></text>
  </g>
</svg>
