<?xml version="1.0" encoding="UTF-8" standalone="no"?>
<!-- Created with Inkscape (http://www.inkscape.org/) -->

<svg
   xmlns:dc="http://purl.org/dc/elements/1.1/"
   xmlns:cc="http://creativecommons.org/ns#"
   xmlns:rdf="http://www.w3.org/1999/02/22-rdf-syntax-ns#"
   xmlns:svg="http://www.w3.org/2000/svg"
   xmlns="http://www.w3.org/2000/svg"
   xmlns:sodipodi="http://sodipodi.sourceforge.net/DTD/sodipodi-0.dtd"
   xmlns:inkscape="http://www.inkscape.org/namespaces/inkscape"
   width="210mm"
   height="297mm"
   id="svg5453"
   version="1.1"
   inkscape:version="0.48.3.1 r9886"
   sodipodi:docname="Nouveau document 3">
  <sodipodi:namedview
     id="base"
     pagecolor="#ffffff"
     bordercolor="#666666"
     borderopacity="1.0"
     inkscape:pageopacity="0.0"
     inkscape:pageshadow="2"
     inkscape:zoom="0.60189835"
     inkscape:cx="567"
     inkscape:cy="421.03406"
     inkscape:document-units="px"
     inkscape:current-layer="g5466"
     showgrid="false"
     inkscape:window-width="1600"
     inkscape:window-height="849"
     inkscape:window-x="0"
     inkscape:window-y="25"
     inkscape:window-maximized="1" />
  <defs
     id="defs5455" />
  <metadata
     id="metadata5458">
    <rdf:RDF>
      <cc:Work
         rdf:about="">
        <dc:format>image/svg+xml</dc:format>
        <dc:type
           rdf:resource="http://purl.org/dc/dcmitype/StillImage" />
        <dc:title></dc:title>
      </cc:Work>
    </rdf:RDF>
  </metadata>
  <g
     id="g5466"
     inkscape:groupmode="layer"
     inkscape:label="Hex Fill">
    <path
       style="fill:#ff00ff;fill-opacity:1;stroke:#000000;stroke-opacity:1"
       d="M 297,93.53125 54,233.8125 l -27,46.78125 27,46.75 54,0 27,-46.75 54,0 27,-46.78125 54,0 27,-46.75 54,0 27,46.75 54,0 27,46.78125 54,0 27,-46.78125 -27,-46.75 -162,-93.53125 z"
       id="hexfill_2_3"
       inkscape:connector-curvature="0"
       sodipodi:nodetypes="ccccccccccccccccccc" />
    <path
       style="fill:#ff00ff;fill-opacity:1;stroke:#000000;stroke-opacity:1"
       d="m 54,327.34375 -27,46.78125 0,187.0625 27,46.75 243,140.3125 54,0 27,-46.78125 -27,-46.75 -54,0 -27,-46.78125 -54,0 -27,-46.75 -54,0 -27,-46.78125 27,-46.75 -27,-46.78125 27,-46.75 -27,-46.78125 z"
       id="hexfill_2_4"
       inkscape:connector-curvature="0"
       sodipodi:nodetypes="ccccccccccccccccccc" />
    <polygon
       id="hexfill_3_4"
       style="stroke:#000000;fill:#ff0000;fill-opacity:1;stroke-opacity:1"
       points="189.000008,280.592242 216.000009,327.357616 189.000008,374.122989 135.000005,374.122989 108.000004,327.357616 135.000005,280.592242" />
    <polygon
       id="hexfill_3_5"
       style="stroke:#000000;fill:#ff0000;fill-opacity:1;stroke-opacity:1"
       points="189.000008,374.122989 216.000009,420.888363 189.000008,467.653737 135.000005,467.653737 108.000004,420.888363 135.000005,374.122989" />
    <polygon
       id="hexfill_3_6"
       style="stroke:#000000;fill:#ff0000;fill-opacity:1;stroke-opacity:1"
       points="189.000008,467.653737 216.000009,514.419110 189.000008,561.184484 135.000005,561.184484 108.000004,514.419110 135.000005,467.653737" />
    <polygon
       id="hexfill_4_3"
       style="stroke:#000000;fill:#ff0000;fill-opacity:1;stroke-opacity:1"
       points="270.000011,233.826868 297.000012,280.592242 270.000011,327.357616 216.000009,327.357616 189.000008,280.592242 216.000009,233.826868" />
    <polygon
       id="hexfill_4_4"
       style="stroke:#000000;fill:#ff0000;fill-opacity:1;stroke-opacity:1"
       points="270.000011,327.357616 297.000012,374.122989 270.000011,420.888363 216.000009,420.888363 189.000008,374.122989 216.000009,327.357616" />
    <polygon
       id="hexfill_4_5"
       style="stroke:#000000;fill:#ff0000;fill-opacity:1;stroke-opacity:1"
       points="270.000011,420.888363 297.000012,467.653737 270.000011,514.419110 216.000009,514.419110 189.000008,467.653737 216.000009,420.888363" />
    <polygon
       id="hexfill_4_6"
       style="stroke:#000000;fill:#ff0000;fill-opacity:1;stroke-opacity:1"
       points="270.000011,514.419110 297.000012,561.184484 270.000011,607.949858 216.000009,607.949858 189.000008,561.184484 216.000009,514.419110" />
    <polygon
       id="hexfill_5_3"
       style="stroke:#000000;fill:#ff0000;fill-opacity:1;stroke-opacity:1"
       points="351.000014,187.061495 378.000015,233.826868 351.000014,280.592242 297.000012,280.592242 270.000011,233.826868 297.000012,187.061495" />
    <polygon
       id="hexfill_5_4"
       style="stroke:#000000;fill:#ff0000;fill-opacity:1;stroke-opacity:1"
       points="351.000014,280.592242 378.000015,327.357616 351.000014,374.122989 297.000012,374.122989 270.000011,327.357616 297.000012,280.592242" />
    <polygon
       id="hexfill_5_5"
       style="stroke:#000000;fill:#ff0000;fill-opacity:1;stroke-opacity:1"
       points="351.000014,374.122989 378.000015,420.888363 351.000014,467.653737 297.000012,467.653737 270.000011,420.888363 297.000012,374.122989" />
    <polygon
       id="hexfill_5_6"
       style="stroke:#000000;fill:#ff0000;fill-opacity:1;stroke-opacity:1"
       points="351.000014,467.653737 378.000015,514.419110 351.000014,561.184484 297.000012,561.184484 270.000011,514.419110 297.000012,467.653737" />
    <polygon
       id="hexfill_5_7"
       style="stroke:#000000;fill:#ff0000;fill-opacity:1;stroke-opacity:1"
       points="351.000014,561.184484 378.000015,607.949858 351.000014,654.715231 297.000012,654.715231 270.000011,607.949858 297.000012,561.184484" />
    <path
       style="fill:#ff00ff;fill-opacity:1;stroke:#000000;stroke-opacity:1"
       d="m 297,748.25 -27,46.75 0,187.0625 27,46.7813 243,140.2812 54,0 27,-46.75 -27,-46.7812 -54,0 -27,-46.75 -54,0 -27,-46.7813 -54,0 -27,-46.75 27,-46.78125 -27,-46.75 L 378,795 351,748.25 z"
       id="hexfill_5_9"
       inkscape:connector-curvature="0"
       sodipodi:nodetypes="ccccccccccccccccccc" />
    <polygon
       id="hexfill_6_3"
       style="stroke:#000000;fill:#ff0000;fill-opacity:1;stroke-opacity:1"
       points="432.000017,233.826868 459.000018,280.592242 432.000017,327.357616 378.000015,327.357616 351.000014,280.592242 378.000015,233.826868" />
    <polygon
       id="hexfill_6_4"
       style="stroke:#000000;fill:#ff0000;fill-opacity:1;stroke-opacity:1"
       points="432.000017,327.357616 459.000018,374.122989 432.000017,420.888363 378.000015,420.888363 351.000014,374.122989 378.000015,327.357616" />
    <polygon
       id="hexfill_6_5"
       style="stroke:#000000;fill:#ff0000;fill-opacity:1;stroke-opacity:1"
       points="432.000017,420.888363 459.000018,467.653737 432.000017,514.419110 378.000015,514.419110 351.000014,467.653737 378.000015,420.888363" />
    <polygon
       id="hexfill_6_6"
       style="stroke:#000000;fill:#ff0000;fill-opacity:1;stroke-opacity:1"
       points="432.000017,514.419110 459.000018,561.184484 432.000017,607.949858 378.000015,607.949858 351.000014,561.184484 378.000015,514.419110" />
    <polygon
       id="hexfill_6_7"
       style="stroke:#000000;fill:#ffff66;fill-opacity:1;stroke-opacity:1"
       points="432.000017,607.949858 459.000018,654.715231 432.000017,701.480605 378.000015,701.480605 351.000014,654.715231 378.000015,607.949858" />
    <polygon
       id="hexfill_6_8"
       style="stroke:#000000;fill:#00ff00;fill-opacity:1;stroke-opacity:1"
       points="432.000017,701.480605 459.000018,748.245979 432.000017,795.011352 378.000015,795.011352 351.000014,748.245979 378.000015,701.480605" />
    <polygon
       id="hexfill_6_9"
       style="stroke:#000000;fill:#00ff00;fill-opacity:1;stroke-opacity:1"
       points="432.000017,795.011352 459.000018,841.776726 432.000017,888.542100 378.000015,888.542100 351.000014,841.776726 378.000015,795.011352" />
    <polygon
       id="hexfill_6_10"
       style="stroke:#000000;fill:#00ff00;fill-opacity:1;stroke-opacity:1"
       points="432.000017,888.542100 459.000018,935.307473 432.000017,982.072847 378.000015,982.072847 351.000014,935.307473 378.000015,888.542100" />
    <polygon
       id="hexfill_7_4"
       style="stroke:#000000;fill:#ff0000;fill-opacity:1;stroke-opacity:1"
       points="513.000020,280.592242 540.000021,327.357616 513.000020,374.122989 459.000018,374.122989 432.000017,327.357616 459.000018,280.592242" />
    <polygon
       id="hexfill_7_5"
       style="stroke:#000000;fill:#ff0000;fill-opacity:1;stroke-opacity:1"
       points="513.000020,374.122989 540.000021,420.888363 513.000020,467.653737 459.000018,467.653737 432.000017,420.888363 459.000018,374.122989" />
    <polygon
       id="hexfill_7_6"
       style="stroke:#000000;fill:#ff0000;fill-opacity:1;stroke-opacity:1"
       points="513.000020,467.653737 540.000021,514.419110 513.000020,561.184484 459.000018,561.184484 432.000017,514.419110 459.000018,467.653737" />
    <polygon
       id="hexfill_7_7"
       style="stroke:#000000;fill:#ffff66;fill-opacity:1;stroke-opacity:1"
       points="513.000020,561.184484 540.000021,607.949858 513.000020,654.715231 459.000018,654.715231 432.000017,607.949858 459.000018,561.184484" />
    <polygon
       id="hexfill_7_8"
       style="stroke:#000000;fill:#00ff00;fill-opacity:1;stroke-opacity:1"
       points="513.000020,654.715231 540.000021,701.480605 513.000020,748.245979 459.000018,748.245979 432.000017,701.480605 459.000018,654.715231" />
    <polygon
       id="hexfill_7_9"
       style="stroke:#000000;fill:#00ff00;fill-opacity:1;stroke-opacity:1"
       points="513.000020,748.245979 540.000021,795.011352 513.000020,841.776726 459.000018,841.776726 432.000017,795.011352 459.000018,748.245979" />
    <polygon
       id="hexfill_7_10"
       style="stroke:#000000;fill:#00ff00;fill-opacity:1;stroke-opacity:1"
       points="513.000020,841.776726 540.000021,888.542100 513.000020,935.307473 459.000018,935.307473 432.000017,888.542100 459.000018,841.776726" />
    <polygon
       id="hexfill_7_11"
       style="stroke:#000000;fill:#00ff00;fill-opacity:1;stroke-opacity:1"
       points="513.000020,935.307473 540.000021,982.072847 513.000020,1028.838221 459.000018,1028.838221 432.000017,982.072847 459.000018,935.307473" />
    <path
       style="fill:#ff00ff;fill-opacity:1;stroke:#000000;stroke-opacity:1"
       d="m 783,93.53125 -243,140.28125 -27,46.78125 27,46.75 54,0 27,-46.75 54,0 27,-46.78125 54,0 27,-46.75 54,0 27,46.75 54,0 27,46.78125 54,0 27,-46.78125 -27,-46.75 -162,-93.53125 z"
       id="hexfill_8_3"
       inkscape:connector-curvature="0"
       sodipodi:nodetypes="ccccccccccccccccccc" />
    <polygon
       id="hexfill_8_4"
       style="stroke:#000000;fill:#ffff66;fill-opacity:1;stroke-opacity:1"
       points="594.000024,327.357616 621.000025,374.122989 594.000024,420.888363 540.000021,420.888363 513.000020,374.122989 540.000021,327.357616" />
    <polygon
       id="hexfill_8_5"
       style="stroke:#000000;fill:#ffff66;fill-opacity:1;stroke-opacity:1"
       points="594.000024,420.888363 621.000025,467.653737 594.000024,514.419110 540.000021,514.419110 513.000020,467.653737 540.000021,420.888363" />
    <polygon
       id="hexfill_8_6"
       style="stroke:#000000;fill:#ffff66;fill-opacity:1;stroke-opacity:1"
       points="594.000024,514.419110 621.000025,561.184484 594.000024,607.949858 540.000021,607.949858 513.000020,561.184484 540.000021,514.419110" />
    <polygon
       id="hexfill_8_7"
       style="stroke:#000000;fill:#00ff00;fill-opacity:1;stroke-opacity:1"
       points="594.000024,607.949858 621.000025,654.715231 594.000024,701.480605 540.000021,701.480605 513.000020,654.715231 540.000021,607.949858" />
    <polygon
       id="hexfill_8_8"
       style="stroke:#000000;fill:#00ff00;fill-opacity:1;stroke-opacity:1"
       points="594.000024,701.480605 621.000025,748.245979 594.000024,795.011352 540.000021,795.011352 513.000020,748.245979 540.000021,701.480605" />
    <polygon
       id="hexfill_8_9"
       style="stroke:#000000;fill:#00ff00;fill-opacity:1;stroke-opacity:1"
       points="594.000024,795.011352 621.000025,841.776726 594.000024,888.542100 540.000021,888.542100 513.000020,841.776726 540.000021,795.011352" />
    <polygon
       id="hexfill_8_10"
       style="stroke:#000000;fill:#00ff00;fill-opacity:1;stroke-opacity:1"
       points="594.000024,888.542100 621.000025,935.307473 594.000024,982.072847 540.000021,982.072847 513.000020,935.307473 540.000021,888.542100" />
    <polygon
       id="hexfill_8_11"
       style="stroke:#000000;fill:#00ff00;fill-opacity:1;stroke-opacity:1"
       points="594.000024,982.072847 621.000025,1028.838221 594.000024,1075.603594 540.000021,1075.603594 513.000020,1028.838221 540.000021,982.072847" />
    <polygon
       id="hexfill_9_4"
       style="stroke:#000000;fill:#0000ff;fill-opacity:1;stroke-opacity:1"
       points="675.000027,280.592242 702.000028,327.357616 675.000027,374.122989 621.000025,374.122989 594.000024,327.357616 621.000025,280.592242" />
    <polygon
       id="hexfill_9_5"
       style="stroke:#000000;fill:#0000ff;fill-opacity:1;stroke-opacity:1"
       points="675.000027,374.122989 702.000028,420.888363 675.000027,467.653737 621.000025,467.653737 594.000024,420.888363 621.000025,374.122989" />
    <polygon
       id="hexfill_9_6"
       style="stroke:#000000;fill:#0000ff;fill-opacity:1;stroke-opacity:1"
       points="675.000027,467.653737 702.000028,514.419110 675.000027,561.184484 621.000025,561.184484 594.000024,514.419110 621.000025,467.653737" />
    <polygon
       id="hexfill_9_7"
       style="stroke:#000000;fill:#ffff66;fill-opacity:1;stroke-opacity:1"
       points="675.000027,561.184484 702.000028,607.949858 675.000027,654.715231 621.000025,654.715231 594.000024,607.949858 621.000025,561.184484" />
    <polygon
       id="hexfill_9_8"
       style="stroke:#000000;fill:#00ff00;fill-opacity:1;stroke-opacity:1"
       points="675.000027,654.715231 702.000028,701.480605 675.000027,748.245979 621.000025,748.245979 594.000024,701.480605 621.000025,654.715231" />
    <polygon
       id="hexfill_9_9"
       style="stroke:#000000;fill:#00ff00;fill-opacity:1;stroke-opacity:1"
       points="675.000027,748.245979 702.000028,795.011352 675.000027,841.776726 621.000025,841.776726 594.000024,795.011352 621.000025,748.245979" />
    <polygon
       id="hexfill_9_10"
       style="stroke:#000000;fill:#00ff00;fill-opacity:1;stroke-opacity:1"
       points="675.000027,841.776726 702.000028,888.542100 675.000027,935.307473 621.000025,935.307473 594.000024,888.542100 621.000025,841.776726" />
    <polygon
       id="hexfill_9_11"
       style="stroke:#000000;fill:#00ff00;fill-opacity:1;stroke-opacity:1"
       points="675.000027,935.307473 702.000028,982.072847 675.000027,1028.838221 621.000025,1028.838221 594.000024,982.072847 621.000025,935.307473" />
    <path
       style="fill:#ff00ff;fill-opacity:1;stroke:#000000;stroke-opacity:1"
       d="m 783,654.71875 -27,46.75 27,46.78125 -27,46.75 27,46.78125 -27,46.75 27,46.78125 -27,46.75 -54,0 -27,46.7813 -54,0 -27,46.75 27,46.7812 54,0 162,-93.5312 27,-46.7813 0,-280.59375 -27,-46.75 z"
       id="hexfill_9_12"
       inkscape:connector-curvature="0"
       sodipodi:nodetypes="ccccccccccccccccccc" />
    <polygon
       id="hexfill_10_3"
       style="stroke:#000000;fill:#0000ff;fill-opacity:1;stroke-opacity:1"
       points="756.000030,233.826868 783.000031,280.592242 756.000030,327.357616 702.000028,327.357616 675.000027,280.592242 702.000028,233.826868" />
    <polygon
       id="hexfill_10_4"
       style="stroke:#000000;fill:#0000ff;fill-opacity:1;stroke-opacity:1"
       points="756.000030,327.357616 783.000031,374.122989 756.000030,420.888363 702.000028,420.888363 675.000027,374.122989 702.000028,327.357616" />
    <polygon
       id="hexfill_10_5"
       style="stroke:#000000;fill:#0000ff;fill-opacity:1;stroke-opacity:1"
       points="756.000030,420.888363 783.000031,467.653737 756.000030,514.419110 702.000028,514.419110 675.000027,467.653737 702.000028,420.888363" />
    <polygon
       id="hexfill_10_6"
       style="stroke:#000000;fill:#0000ff;fill-opacity:1;stroke-opacity:1"
       points="756.000030,514.419110 783.000031,561.184484 756.000030,607.949858 702.000028,607.949858 675.000027,561.184484 702.000028,514.419110" />
    <polygon
       id="hexfill_10_7"
       style="stroke:#000000;fill:#ffff66;fill-opacity:1;stroke-opacity:1"
       points="756.000030,607.949858 783.000031,654.715231 756.000030,701.480605 702.000028,701.480605 675.000027,654.715231 702.000028,607.949858" />
    <polygon
       id="hexfill_10_8"
       style="stroke:#000000;fill:#00ff00;fill-opacity:1;stroke-opacity:1"
       points="756.000030,701.480605 783.000031,748.245979 756.000030,795.011352 702.000028,795.011352 675.000027,748.245979 702.000028,701.480605" />
    <polygon
       id="hexfill_10_9"
       style="stroke:#000000;fill:#00ff00;fill-opacity:1;stroke-opacity:1"
       points="756.000030,795.011352 783.000031,841.776726 756.000030,888.542100 702.000028,888.542100 675.000027,841.776726 702.000028,795.011352" />
    <polygon
       id="hexfill_10_10"
       style="stroke:#000000;fill:#00ff00;fill-opacity:1;stroke-opacity:1"
       points="756.000030,888.542100 783.000031,935.307473 756.000030,982.072847 702.000028,982.072847 675.000027,935.307473 702.000028,888.542100" />
    <polygon
       id="hexfill_11_3"
       style="stroke:#000000;fill:#0000ff;fill-opacity:1;stroke-opacity:1"
       points="837.000033,187.061495 864.000034,233.826868 837.000033,280.592242 783.000031,280.592242 756.000030,233.826868 783.000031,187.061495" />
    <polygon
       id="hexfill_11_4"
       style="stroke:#000000;fill:#0000ff;fill-opacity:1;stroke-opacity:1"
       points="837.000033,280.592242 864.000034,327.357616 837.000033,374.122989 783.000031,374.122989 756.000030,327.357616 783.000031,280.592242" />
    <polygon
       id="hexfill_11_5"
       style="stroke:#000000;fill:#0000ff;fill-opacity:1;stroke-opacity:1"
       points="837.000033,374.122989 864.000034,420.888363 837.000033,467.653737 783.000031,467.653737 756.000030,420.888363 783.000031,374.122989" />
    <polygon
       id="hexfill_11_6"
       style="stroke:#000000;fill:#0000ff;fill-opacity:1;stroke-opacity:1"
       points="837.000033,467.653737 864.000034,514.419110 837.000033,561.184484 783.000031,561.184484 756.000030,514.419110 783.000031,467.653737" />
    <polygon
       id="hexfill_11_7"
       style="stroke:#000000;fill:#0000ff;fill-opacity:1;stroke-opacity:1"
       points="837.000033,561.184484 864.000034,607.949858 837.000033,654.715231 783.000031,654.715231 756.000030,607.949858 783.000031,561.184484" />
    <polygon
       id="hexfill_12_3"
       style="stroke:#000000;fill:#0000ff;fill-opacity:1;stroke-opacity:1"
       points="918.000036,233.826868 945.000038,280.592242 918.000036,327.357616 864.000034,327.357616 837.000033,280.592242 864.000034,233.826868" />
    <polygon
       id="hexfill_12_4"
       style="stroke:#000000;fill:#0000ff;fill-opacity:1;stroke-opacity:1"
       points="918.000036,327.357616 945.000038,374.122989 918.000036,420.888363 864.000034,420.888363 837.000033,374.122989 864.000034,327.357616" />
    <polygon
       id="hexfill_12_5"
       style="stroke:#000000;fill:#0000ff;fill-opacity:1;stroke-opacity:1"
       points="918.000036,420.888363 945.000038,467.653737 918.000036,514.419110 864.000034,514.419110 837.000033,467.653737 864.000034,420.888363" />
    <polygon
       id="hexfill_12_6"
       style="stroke:#000000;fill:#0000ff;fill-opacity:1;stroke-opacity:1"
       points="918.000036,514.419110 945.000038,561.184484 918.000036,607.949858 864.000034,607.949858 837.000033,561.184484 864.000034,514.419110" />
    <path
       style="fill:#ff00ff;fill-opacity:1;stroke:#000000;stroke-opacity:1"
       d="m 1026,233.8125 -27,46.78125 27,46.75 -27,46.78125 27,46.75 -27,46.78125 27,46.75 -27,46.78125 -54,0 -27,46.75 -54,0 -27,46.78125 27,46.75 54,0 162,-93.53125 27,-46.75 0,-280.59375 -27,-46.78125 z"
       id="hexfill_12_7"
       inkscape:connector-curvature="0"
       sodipodi:nodetypes="ccccccccccccccccccc" />
    <polygon
       id="hexfill_13_4"
       style="stroke:#000000;fill:#0000ff;fill-opacity:1;stroke-opacity:1"
       points="999.000040,280.592242 1026.000041,327.357616 999.000040,374.122989 945.000038,374.122989 918.000036,327.357616 945.000038,280.592242" />
    <polygon
       id="hexfill_13_5"
       style="stroke:#000000;fill:#0000ff;fill-opacity:1;stroke-opacity:1"
       points="999.000040,374.122989 1026.000041,420.888363 999.000040,467.653737 945.000038,467.653737 918.000036,420.888363 945.000038,374.122989" />
    <polygon
       id="hexfill_13_6"
       style="stroke:#000000;fill:#0000ff;fill-opacity:1;stroke-opacity:1"
       points="999.000040,467.653737 1026.000041,514.419110 999.000040,561.184484 945.000038,561.184484 918.000036,514.419110 945.000038,467.653737" />
  </g>
</svg>
